<?xml version="1.0" standalone="no"?>
<!DOCTYPE svg PUBLIC "-//W3C//DTD SVG 20010904//EN"
 "http://www.w3.org/TR/2001/REC-SVG-20010904/DTD/svg10.dtd">
<svg version="1.0" xmlns="http://www.w3.org/2000/svg"
 width="533.000000pt" height="533.000000pt" viewBox="0 0 533.000000 533.000000"
 preserveAspectRatio="xMidYMid meet">

<g transform="translate(0.000000,533.000000) scale(0.100000,-0.100000)"
fill="#000000" stroke="none">
<path d="M0 5207 l0 -123 280 -278 c154 -153 280 -282 280 -286 0 -3 -3 -10
-7 -14 -10 -10 -11 -62 -2 -150 9 -91 22 -151 55 -256 13 -41 30 -97 39 -125
19 -62 52 -118 65 -110 5 3 8 0 5 -7 -4 -11 34 -68 132 -194 12 -16 22 -33 22
-37 -1 -16 65 -68 81 -64 15 3 70 -47 70 -64 0 -5 30 -40 67 -79 60 -63 68
-68 83 -55 9 8 21 15 27 15 17 0 77 33 86 48 4 6 15 12 23 12 8 0 17 7 20 15
4 8 12 15 19 15 7 0 16 6 18 13 4 9 6 9 6 0 1 -7 11 -3 24 10 13 12 21 26 19
31 -3 5 0 6 5 3 6 -4 33 5 61 20 l49 26 28 -25 c17 -16 23 -28 16 -32 -8 -5
-8 -13 0 -28 10 -19 9 -20 -7 -13 -51 20 -57 19 -50 -8 7 -30 4 -32 -25 -17
-27 15 -42 4 -28 -22 10 -19 9 -20 -7 -13 -53 21 -57 20 -49 -14 l7 -33 -27
18 c-19 13 -29 14 -38 5 -8 -8 -8 -14 1 -23 22 -22 13 -31 -13 -14 -30 20 -48
12 -40 -15 6 -17 3 -18 -26 -12 -31 6 -32 5 -25 -21 6 -25 5 -26 -14 -16 -33
17 -54 6 -39 -21 10 -20 9 -21 -7 -14 -37 15 -49 11 -46 -14 2 -18 -1 -22 -15
-16 -32 12 -38 10 -37 -12 1 -23 -20 -32 -31 -13 -10 16 -37 -1 -32 -22 4 -15
1 -18 -14 -13 -11 4 -30 -2 -47 -13 -15 -11 -54 -33 -86 -48 -37 -17 -65 -39
-75 -56 -12 -22 -21 -27 -39 -23 -21 5 -22 3 -19 -30 3 -20 8 -39 12 -43 4 -4
4 4 1 18 l-7 25 23 -25 c13 -14 31 -37 41 -50 17 -24 17 -17 0 28 -4 11 4 7
25 -11 16 -16 33 -28 37 -27 3 1 25 -16 49 -38 39 -36 132 -203 119 -215 -8
-9 18 -88 27 -82 6 4 10 3 10 -2 0 -4 9 -19 20 -33 l20 -25 -10 28 c-5 15 -17
41 -25 57 -9 17 -13 35 -10 40 12 19 44 10 65 -17 13 -17 24 -23 28 -17 4 6
24 17 45 23 20 7 37 19 37 27 0 8 9 14 21 14 11 0 29 4 39 10 24 13 46 -15 94
-116 20 -41 38 -74 40 -74 8 0 -12 58 -39 112 -65 129 -77 200 -22 126 28 -37
97 -169 97 -186 0 -5 7 -12 15 -16 9 -3 16 -19 16 -38 2 -30 2 -30 6 -6 3 18
-11 60 -43 125 -77 161 -85 183 -69 183 21 0 50 -42 105 -156 28 -57 56 -107
62 -110 17 -11 0 33 -58 148 -52 103 -67 154 -43 146 17 -6 75 -104 114 -193
19 -44 35 -75 35 -70 0 6 5 3 11 -5 22 -32 -5 38 -62 159 -33 68 -59 126 -59
128 0 1 9 3 19 3 14 0 34 -29 77 -115 51 -100 74 -134 74 -107 0 4 -25 58 -55
121 -31 63 -53 121 -50 129 10 27 39 -12 94 -128 30 -60 58 -110 64 -110 5 0
5 5 -2 13 -6 8 -8 16 -5 19 3 3 -16 47 -41 98 -63 126 -67 137 -49 144 17 7
49 -42 101 -156 21 -45 44 -84 51 -85 12 -3 5 13 -72 180 -40 87 -42 97 -21
97 16 0 68 -91 110 -193 18 -44 32 -64 38 -58 6 6 -11 53 -48 133 -61 132 -66
149 -48 155 14 5 71 -95 108 -189 15 -38 31 -68 36 -68 15 0 -1 49 -52 159
-49 104 -57 131 -40 131 16 0 50 -56 93 -152 46 -106 64 -131 54 -78 -3 19
-29 81 -56 138 -54 112 -57 122 -36 122 18 0 58 -68 108 -184 35 -82 39 -87
34 -47 -2 24 -25 86 -50 138 -25 52 -46 101 -46 109 0 29 22 12 58 -46 20 -32
41 -59 46 -60 5 0 4 6 -1 13 -6 6 -13 20 -16 30 -6 15 -3 17 13 12 16 -5 20
-2 20 16 0 17 3 19 14 10 11 -9 15 -9 19 1 4 8 8 5 12 -9 4 -13 13 -23 20 -23
7 0 19 -8 26 -17 12 -16 12 -17 -1 -6 -9 6 -21 8 -28 4 -10 -6 -10 -10 0 -17
15 -12 28 -12 48 0 9 6 7 1 -4 -12 -21 -24 -30 -29 -21 -9 4 6 -1 3 -10 -8 -9
-11 -21 -19 -26 -17 -5 1 -9 -5 -9 -14 0 -13 4 -13 32 3 18 10 40 23 48 30 13
10 23 5 58 -28 43 -42 49 -53 32 -64 -6 -3 -10 -11 -10 -16 0 -6 4 -8 9 -5 12
8 22 -20 14 -41 -4 -12 3 -8 22 10 l29 28 73 -73 73 -73 -172 -173 -173 -172
-12 27 c-6 16 -14 75 -18 133 -4 59 -12 108 -19 112 -8 6 -7 8 2 8 6 0 12 12
12 26 0 22 -3 24 -22 19 -13 -4 -40 -21 -62 -37 -34 -27 -37 -28 -31 -9 4 15
2 21 -8 21 -10 0 -13 -7 -10 -19 3 -10 0 -22 -6 -25 -6 -4 -11 -3 -11 3 0 5
-9 9 -19 8 -15 -1 -17 -5 -10 -18 6 -12 4 -19 -6 -23 -10 -3 -15 1 -15 12 0
14 -2 14 -9 3 -5 -8 -16 -11 -26 -7 -15 5 -16 4 -6 -8 7 -8 10 -20 6 -27 -6
-8 -10 -7 -16 2 -6 10 -9 8 -9 -8 0 -29 -16 -30 -23 -2 -8 29 -27 14 -27 -21
0 -16 -4 -32 -10 -35 -5 -3 -10 1 -10 9 0 8 -4 17 -9 20 -5 4 -7 -4 -4 -16 3
-17 2 -19 -5 -10 -7 11 -10 10 -16 -3 -4 -11 -12 -15 -24 -10 -13 5 -14 3 -5
-5 8 -9 6 -18 -10 -36 -11 -13 -26 -24 -33 -24 -15 0 -23 -200 -12 -295 4 -33
10 -96 14 -140 l6 -80 -478 -475 c-264 -261 -631 -626 -816 -810 l-338 -335 0
-127 0 -128 96 0 96 0 740 733 c407 402 743 733 748 735 5 2 11 -7 15 -20 13
-43 94 -206 106 -213 8 -5 9 0 4 16 l-7 24 26 -24 c14 -14 26 -30 26 -38 0 -7
5 -13 10 -13 6 0 10 -7 10 -15 0 -23 -16 -18 -39 13 -13 17 -19 20 -14 8 5
-14 3 -17 -6 -11 -10 6 -11 3 -2 -14 7 -12 30 -33 52 -48 36 -24 55 -28 148
-34 84 -5 121 -13 178 -36 39 -16 78 -34 85 -41 25 -20 44 -114 63 -304 0 -10
4 -20 7 -23 3 -3 3 -28 0 -57 -3 -28 -1 -49 4 -45 5 3 9 -25 9 -62 0 -49 6
-78 20 -105 17 -32 18 -38 5 -47 -12 -9 -12 -10 4 -5 15 5 17 3 10 -11 -13
-28 -7 -112 11 -139 9 -14 13 -33 10 -44 -5 -15 -3 -18 10 -14 13 5 14 2 5
-20 -6 -18 -6 -25 0 -21 6 3 10 -3 10 -15 0 -11 7 -23 16 -27 14 -5 23 2 39
32 3 6 7 5 11 -2 10 -22 24 -14 24 13 l0 25 35 -27 c19 -14 35 -29 35 -33 0
-4 -20 -13 -45 -20 -44 -13 -56 -31 -37 -56 10 -15 52 -18 52 -5 0 7 -7 10
-15 6 -11 -4 -15 1 -15 19 0 18 7 25 29 30 16 3 42 18 57 32 26 24 28 24 41 7
12 -17 13 -17 13 0 0 32 -29 73 -54 78 -22 4 -25 2 -23 -23 1 -16 5 -29 10
-29 4 0 7 -7 7 -15 0 -18 -7 -19 -24 -2 -7 7 -11 18 -8 25 2 7 -5 16 -17 19
-12 3 -21 10 -21 17 0 6 -9 17 -21 24 -12 8 -18 19 -15 28 4 12 1 14 -14 9
-23 -7 -25 2 -10 41 10 25 9 26 -7 13 -10 -8 -21 -18 -25 -24 -4 -5 -10 -6
-15 -2 -4 5 -1 13 7 18 11 8 12 12 3 16 -7 2 -13 13 -13 24 0 30 -20 22 -21
-8 -2 -24 -2 -25 -6 -6 -6 29 16 57 45 60 16 2 22 -2 22 -17 0 -11 6 -20 13
-20 15 0 52 -68 48 -89 -2 -10 5 -12 28 -8 27 6 31 4 31 -14 0 -11 5 -17 10
-14 6 3 7 17 4 31 -4 14 -1 31 6 39 9 10 9 15 1 15 -6 0 -11 10 -11 23 l0 22
13 -24 c6 -13 28 -32 47 -43 19 -10 35 -26 35 -36 1 -65 45 -83 56 -22 5 29 7
31 9 10 2 -17 5 -10 10 20 5 30 7 36 8 18 1 -16 7 -28 13 -28 6 0 8 9 4 20 -4
11 0 29 9 42 14 19 20 18 18 -3 -1 -3 13 -3 31 -1 29 5 30 6 9 13 -14 5 -20
14 -16 23 3 8 2 21 -2 28 -5 7 -8 22 -9 33 0 11 -5 19 -11 18 -7 -1 -14 11
-18 28 -3 17 -10 28 -15 25 -5 -4 -11 -1 -13 6 -3 7 -11 9 -24 4 -18 -8 -18
-8 3 -16 26 -11 48 -46 33 -55 -5 -3 -15 5 -22 19 -6 14 -19 26 -29 26 -13 0
-19 9 -21 35 -2 20 -7 35 -12 34 -5 0 -13 5 -17 13 -7 10 -9 8 -9 -7 -1 -17
-3 -17 -12 5 -9 21 -12 22 -15 8 -5 -20 -23 -24 -23 -5 0 8 -3 8 -8 1 -9 -13
-42 -26 -42 -16 0 4 10 12 22 17 24 11 37 37 16 33 -7 -2 -12 3 -10 10 1 7 -4
15 -12 18 -9 3 -12 12 -9 21 5 11 3 14 -6 9 -8 -5 -21 0 -33 13 -16 18 -17 25
-7 37 6 8 9 18 5 22 -4 4 -13 -1 -20 -10 -7 -10 -16 -15 -19 -11 -4 3 -1 13 6
21 10 13 9 15 -10 10 -16 -4 -20 -2 -16 8 3 8 0 14 -6 14 -6 0 -11 5 -11 11 0
15 62 69 72 63 4 -3 8 0 8 5 0 6 5 11 10 11 6 0 10 -7 10 -15 0 -20 10 -19 26
2 12 16 13 16 14 2 0 -21 30 -34 30 -14 0 9 10 15 25 15 25 0 28 -5 27 -45 -1
-17 0 -17 4 -3 6 21 15 23 32 6 9 -9 12 -9 12 0 0 7 6 12 14 12 9 0 12 7 9 20
-6 21 11 28 22 10 5 -8 11 -7 21 1 11 9 14 7 14 -12 0 -37 14 -53 29 -36 6 8
20 13 31 10 14 -4 21 2 26 23 6 22 2 32 -21 52 -23 19 -25 26 -14 33 19 12 29
11 29 -2 0 -6 7 -17 15 -25 21 -22 20 4 -2 28 -14 16 -15 20 -1 36 9 9 13 24
10 32 -2 8 -2 12 2 8 4 -3 9 -12 10 -20 5 -29 41 -75 56 -70 12 4 13 2 3 -9
-22 -22 -14 -30 21 -25 19 3 38 1 41 -4 4 -6 11 -8 16 -5 5 4 12 -1 15 -9 3
-9 11 -16 16 -16 11 0 45 -40 64 -74 15 -26 7 -46 -18 -46 -15 0 -18 -5 -13
-20 5 -16 2 -20 -15 -20 -17 0 -20 -4 -15 -22 6 -19 5 -21 -6 -11 -10 10 -15
9 -25 -5 -12 -15 -14 -14 -15 13 -1 17 -2 41 -1 55 0 16 -1 18 -5 7 -7 -25
-23 -21 -23 7 0 28 -16 43 -23 24 -4 -10 -6 -10 -6 0 -1 6 -5 12 -10 12 -5 0
-7 -19 -4 -42 4 -40 3 -42 -11 -24 -16 19 -16 19 -16 -3 0 -12 -4 -19 -10 -16
-5 3 -19 1 -30 -5 -15 -8 -20 -8 -20 2 0 10 -2 10 -9 -1 -6 -9 -11 -10 -15 -2
-11 16 -46 13 -46 -4 0 -8 7 -15 15 -15 17 0 20 -16 5 -25 -8 -5 -7 -11 1 -21
15 -18 39 -18 39 1 0 8 5 15 10 15 6 0 10 -7 10 -15 0 -8 -4 -15 -10 -15 -16
0 -11 -26 8 -43 10 -10 25 -17 33 -17 8 0 27 -12 42 -26 15 -14 34 -23 42 -20
8 3 18 0 22 -7 7 -11 68 -37 88 -37 4 0 5 16 2 35 -6 35 8 49 19 20 9 -22 23
-18 17 5 -3 11 -9 20 -14 20 -5 0 -9 7 -9 15 0 23 -17 18 -25 -7 -4 -13 -7
-27 -6 -31 1 -5 -2 -7 -6 -5 -4 3 -23 11 -40 18 -35 15 -43 30 -17 30 13 0 15
7 11 38 -3 20 -3 29 -1 19 7 -24 22 -21 27 5 2 13 5 3 6 -22 1 -42 2 -43 19
-27 15 15 15 19 2 27 -8 5 -11 12 -7 17 5 4 13 1 18 -7 8 -11 12 -12 16 -3 2
7 13 13 24 13 11 0 19 7 19 16 0 8 4 13 9 10 5 -3 7 -15 4 -26 -3 -11 0 -20 6
-20 6 0 11 -11 11 -24 0 -15 7 -26 20 -29 11 -3 20 -1 20 5 0 5 4 7 10 3 12
-8 55 35 43 44 -5 3 -15 15 -21 26 -6 11 -12 14 -12 7 0 -17 -30 11 -30 28 0
7 -8 24 -19 38 -21 30 -60 120 -86 200 -9 28 -20 50 -25 47 -11 -7 -20 20 -20
63 0 25 -3 33 -9 23 -15 -23 -34 25 -23 57 5 15 7 55 5 89 -3 36 0 64 6 68 6
3 11 15 11 26 0 11 -5 17 -10 14 -6 -3 -10 -1 -10 4 0 6 6 11 14 11 18 0 26
22 26 71 0 26 7 46 21 60 11 11 23 37 27 57 5 35 6 36 14 12 5 -16 6 -8 2 22
-4 35 -1 56 12 76 12 22 14 34 6 48 -9 16 -11 15 -20 -16 -6 -19 -11 -28 -11
-20 -1 10 -7 6 -17 -10 l-15 -25 7 25 c3 14 10 30 15 35 4 6 7 31 7 55 0 38
-2 41 -9 21 -14 -35 -23 -18 -24 42 0 44 -3 52 -18 50 -15 -1 -18 4 -14 24 3
17 1 23 -9 19 -8 -3 -14 1 -14 10 0 10 6 14 14 11 8 -3 18 4 24 18 9 19 8 24
-9 28 -10 3 -19 13 -19 22 0 14 3 15 15 5 11 -9 15 -9 15 -1 0 6 -7 14 -15 17
-16 7 -12 39 10 84 13 24 14 23 156 -114 196 -188 288 -287 282 -303 -3 -7 2
-16 11 -19 9 -3 16 -10 16 -16 0 -5 -4 -7 -9 -4 -5 3 -14 -1 -21 -9 -11 -13
-10 -14 4 -9 9 3 16 1 16 -5 0 -6 -7 -11 -15 -11 -8 0 -15 -5 -15 -11 0 -6 9
-8 23 -4 l22 6 -22 -13 c-25 -15 -63 -61 -63 -77 0 -6 -6 -20 -12 -32 -11 -17
-10 -22 6 -31 12 -7 15 -13 7 -17 -8 -6 -8 -16 0 -39 6 -18 9 -48 7 -68 -3
-25 -1 -33 9 -30 17 7 16 -12 -2 -44 -12 -22 -11 -27 3 -44 13 -14 14 -20 5
-23 -17 -6 -16 -35 2 -59 8 -10 15 -32 15 -47 0 -15 8 -42 17 -60 l18 -32 3
30 c3 31 30 113 43 130 7 9 -6 161 -16 195 -6 20 10 44 23 36 6 -4 8 2 5 14
-3 12 1 22 10 26 9 3 21 21 27 40 6 19 16 34 21 34 5 0 9 14 9 30 0 17 3 30 8
29 4 0 23 -19 42 -42 19 -22 29 -37 21 -32 -11 6 -13 4 -8 -9 6 -14 3 -15 -14
-5 -11 6 -23 8 -27 5 -3 -3 0 -6 7 -6 7 0 9 -5 6 -10 -4 -6 -10 -8 -15 -5 -5
3 -11 1 -15 -5 -6 -9 33 -16 60 -10 6 1 4 -4 -3 -11 -6 -7 -12 -20 -11 -28 0
-11 2 -12 6 -3 2 6 8 12 12 12 11 0 4 -94 -7 -98 -11 -3 9 -52 21 -52 13 0 7
-33 -10 -52 -16 -18 -16 -18 0 -12 17 6 24 -10 8 -20 -4 -3 -6 -17 -3 -31 2
-14 -1 -31 -6 -38 -9 -10 -5 -22 13 -48 13 -19 26 -44 28 -56 1 -11 9 -28 15
-36 9 -11 10 -17 2 -22 -12 -8 -8 -67 7 -105 8 -19 7 -27 -3 -33 -8 -5 -13
-21 -12 -37 2 -24 5 -27 17 -17 12 9 13 9 7 -1 -5 -8 1 -15 16 -21 21 -9 21
-10 3 -12 -11 -1 -26 -2 -32 -2 -7 1 -13 -10 -13 -23 0 -19 5 -24 24 -24 13 0
27 -7 30 -16 9 -24 8 -27 -13 -21 -17 4 -19 0 -16 -24 5 -38 13 -49 36 -49 10
0 19 -4 19 -10 0 -5 -3 -9 -7 -9 -23 4 -35 -3 -30 -15 3 -8 1 -16 -6 -19 -8
-2 -4 -15 12 -39 22 -32 27 -35 72 -32 43 2 48 0 53 -22 5 -19 13 -24 41 -24
18 0 37 5 40 10 4 6 11 8 16 5 5 -4 9 1 9 9 0 9 7 16 15 16 9 0 15 -9 15 -22
0 -39 -11 -67 -25 -62 -15 6 -28 -23 -15 -31 15 -9 12 -67 -2 -62 -7 2 -13 8
-14 13 0 5 -5 18 -9 29 -9 19 -9 19 -15 -2 l-5 -23 -33 28 c-17 15 -32 33 -32
40 0 7 -8 12 -17 11 -11 0 -13 -3 -5 -6 6 -2 12 -14 11 -26 l0 -22 -16 23 c-8
12 -21 22 -29 22 -7 0 -20 10 -29 23 -8 12 -19 21 -23 19 -4 -1 -10 10 -13 25
-10 46 -21 73 -30 73 -5 0 -9 -4 -9 -10 0 -5 -4 -10 -9 -10 -6 0 -7 17 -4 37
5 35 4 36 -9 19 -15 -19 -15 -18 -21 5 -3 13 -9 45 -12 72 -4 26 -11 47 -15
47 -4 0 -11 11 -14 25 -4 14 -11 25 -17 25 -5 0 -17 16 -25 35 -10 25 -21 35
-36 35 -12 0 -30 8 -41 17 -11 10 -17 12 -13 6 4 -7 2 -13 -3 -13 -14 0 -14
17 0 26 8 5 8 8 0 13 -14 9 -16 42 -6 111 8 51 7 54 -8 41 -14 -11 -17 -11
-18 0 -1 8 -5 -2 -8 -21 -4 -19 -5 -39 -2 -45 3 -5 4 -18 3 -27 -2 -10 2 -18
7 -18 6 0 11 -11 11 -25 0 -18 -4 -23 -15 -19 -11 5 -17 -3 -21 -25 -4 -16 -9
-30 -13 -29 -19 2 -20 -5 -6 -37 8 -20 21 -43 30 -51 8 -9 15 -30 16 -47 0
-18 3 -26 6 -19 2 6 11 12 19 12 8 0 11 6 8 15 -4 8 -1 15 6 15 8 0 11 -11 8
-30 -4 -24 -1 -30 9 -25 8 3 17 5 20 5 3 0 0 7 -7 15 -8 9 -9 15 -2 15 21 0
22 -20 4 -61 -11 -24 -22 -37 -26 -30 -10 16 -26 14 -26 -4 0 -8 9 -15 19 -15
15 0 18 -5 14 -21 -3 -12 0 -25 7 -29 17 -10 3 -50 -18 -50 -12 0 -13 -3 -4
-12 9 -9 15 -9 24 0 7 7 17 12 22 12 6 0 5 -5 -2 -12 -18 -18 -14 -31 8 -25
21 5 23 -2 10 -43 l-7 -25 -12 25 c-8 20 -10 21 -9 5 2 -11 -1 -26 -6 -33 -10
-16 20 -52 43 -52 15 -1 15 -2 0 -13 -9 -7 -14 -16 -13 -22 6 -18 -13 -37 -40
-38 -19 -2 -26 -7 -26 -22 0 -17 2 -18 11 -5 8 11 12 12 16 3 3 -10 61 -13
239 -13 180 0 234 3 234 13 0 8 4 7 11 -3 8 -11 9 -5 6 25 -3 22 -3 34 0 28 7
-19 20 -16 26 7 3 13 10 18 21 14 12 -4 15 -2 11 9 -4 8 4 33 15 56 21 39 42
52 55 31 3 -5 12 -7 20 -3 8 3 15 1 15 -5 0 -6 -13 -13 -30 -17 -30 -6 -35
-23 -17 -52 5 -8 3 -13 -7 -13 -8 0 -17 6 -20 13 -4 8 -5 7 -4 -3 0 -8 -3 -30
-7 -49 -8 -32 -9 -33 -16 -13 -5 12 -14 22 -21 21 -9 0 -10 -2 -1 -5 7 -3 9
-12 6 -20 -3 -7 -9 -12 -13 -9 -4 3 -11 -2 -14 -10 -5 -13 7 -15 78 -14 96 2
82 -14 110 128 14 73 13 101 -5 101 -5 0 -9 4 -9 10 0 5 18 0 39 -11 34 -17
51 -20 118 -15 134 11 142 12 145 16 2 3 16 22 31 42 15 20 27 42 27 49 0 10
3 10 12 1 26 -26 41 -14 34 31 -13 94 0 86 226 -141 l213 -212 88 0 87 0 0
139 0 139 -401 394 c-432 424 -450 445 -462 557 -4 30 -12 58 -19 62 -10 7
-10 11 0 21 9 9 12 9 12 -2 1 -10 4 -9 12 4 9 16 7 23 -16 42 -44 39 -24 95
42 113 40 12 41 0 7 -70 -21 -45 -22 -49 -5 -34 11 10 17 22 14 26 -3 5 -1 9
5 9 5 0 13 10 17 22 3 12 13 28 20 36 8 7 12 18 9 23 -4 5 -1 9 6 9 23 0 1 93
-42 185 -24 50 -47 91 -51 93 -4 2 -5 9 -2 15 2 7 -14 30 -36 52 -23 22 -40
33 -38 25 2 -11 -5 -14 -28 -12 -25 3 -32 -1 -37 -20 -4 -13 -1 -26 6 -30 8
-5 4 -8 -11 -8 -15 0 -21 -4 -16 -11 5 -9 -1 -10 -20 -5 -14 3 -26 2 -26 -3 0
-5 -19 -8 -42 -8 -45 1 -97 -19 -111 -40 -4 -7 -13 -13 -19 -13 -6 0 -19 -7
-29 -16 -10 -9 -23 -13 -28 -9 -15 8 -14 35 1 35 6 0 9 3 5 6 -6 6 1 17 35 54
12 13 13 20 5 24 -7 2 -3 5 8 6 20 1 20 1 1 15 -25 19 -36 19 -36 0 0 -8 -7
-15 -15 -15 -9 0 -12 -6 -8 -17 4 -10 2 -14 -5 -9 -6 4 -16 -3 -23 -16 -21
-39 -33 -47 -52 -33 -21 15 -22 29 -2 21 19 -7 19 -1 -2 31 -15 22 -15 26 -3
21 11 -4 15 2 16 24 1 21 -3 28 -12 24 -11 -4 -14 9 -14 59 0 35 -5 76 -10 90
-9 23 -6 30 20 57 17 16 28 34 25 38 -3 5 7 7 21 4 24 -4 26 -3 14 11 -9 11
-9 15 -1 15 7 0 11 6 10 13 -4 35 1 48 20 42 12 -3 21 0 25 10 3 9 11 13 17 9
8 -4 9 -3 5 5 -4 6 -12 8 -18 5 -7 -4 -8 -2 -4 4 4 7 -4 23 -17 38 -45 48
-105 178 -137 294 -18 63 -34 123 -37 132 -9 30 -18 12 -18 -35 0 -25 -2 -43
-5 -41 -8 9 -7 113 2 108 4 -3 8 2 8 10 0 9 -4 16 -8 16 -4 0 -8 8 -8 18 -1 9
-4 26 -8 37 -5 15 -4 14 5 -2 7 -13 15 -23 20 -23 4 0 17 -20 29 -45 12 -25
33 -53 46 -64 13 -10 24 -23 24 -28 0 -8 55 -45 75 -50 6 -1 28 -8 49 -16 72
-27 220 3 292 58 18 14 37 25 42 25 15 0 63 64 58 77 -3 7 1 13 8 13 18 0 28
27 21 54 -5 16 -4 18 4 6 12 -18 13 -17 39 50 37 97 54 222 56 411 l1 176 -39
47 c-61 75 -385 394 -407 401 -10 4 -19 9 -19 13 0 7 301 307 592 591 l117
115 50 -24 c27 -12 65 -38 83 -57 32 -33 33 -38 33 -111 0 -73 -3 -83 -52
-182 -44 -89 -175 -304 -204 -335 -6 -6 -34 15 -74 55 l-65 64 0 -177 0 -177
177 0 178 0 -83 83 -83 83 86 130 c94 140 178 303 194 374 15 64 13 145 -3
184 -18 44 -76 101 -131 129 l-45 22 210 210 210 210 0 122 0 123 -102 0 -103
0 -207 -207 -208 -208 0 47 c0 65 -21 78 -122 78 -73 0 -78 -1 -78 -21 0 -28
-39 -161 -51 -173 -21 -22 -5 -27 71 -24 44 2 80 0 80 -3 0 -3 -14 -18 -30
-34 l-30 -29 -136 17 c-143 18 -174 14 -174 -23 0 -28 31 -40 136 -53 52 -6
94 -13 94 -17 0 -12 -601 -591 -626 -602 -20 -9 -27 -9 -34 1 -4 8 -12 11 -18
7 -5 -3 -21 3 -33 14 -13 11 -21 19 -17 20 3 0 -7 13 -23 29 -16 16 -29 36
-29 43 0 22 -37 47 -84 58 -24 5 -55 14 -70 20 -29 11 -32 4 -13 -25 15 -23
15 -34 3 -54 -7 -11 -5 -13 7 -8 14 5 24 -8 48 -59 17 -36 28 -68 25 -71 -3
-4 -6 -1 -6 5 0 7 -9 12 -20 12 -21 0 -28 16 -9 22 7 2 5 9 -5 17 -13 11 -16
11 -16 0 0 -8 -6 -5 -14 7 -13 17 -13 20 2 26 14 5 13 7 -4 7 -11 1 -35 17
-53 36 -17 19 -36 35 -41 35 -6 0 -10 6 -10 14 0 8 -9 18 -20 21 -11 3 -20 11
-20 16 0 5 -12 14 -26 19 -14 6 -28 19 -31 31 -3 11 -11 18 -19 15 -7 -3 -18
2 -25 10 -8 9 -21 13 -35 10 -12 -3 -38 1 -58 9 -58 24 -179 19 -266 -13 -8
-3 -25 -4 -37 -3 -12 1 -30 -3 -40 -9 -15 -9 -14 -10 7 -5 19 5 22 4 10 -4 -8
-6 -35 -9 -60 -6 -36 4 -40 3 -20 -5 20 -8 17 -9 -17 -5 -27 3 -43 1 -43 -6 0
-6 -9 -8 -21 -4 -12 4 -19 3 -16 -2 3 -5 -9 -9 -27 -10 -59 -2 -147 -24 -140
-35 5 -7 -1 -9 -15 -5 -17 4 -21 2 -17 -9 4 -10 2 -12 -6 -8 -25 16 -77 12
-94 -7 -9 -10 -24 -19 -33 -20 -9 0 0 -8 19 -17 l35 -16 -28 -4 c-24 -3 -26
-6 -15 -19 11 -13 6 -15 -39 -12 -29 2 -49 0 -45 -5 3 -5 -2 -7 -11 -3 -12 5
-17 1 -17 -13 0 -11 -6 -20 -13 -20 -8 0 -22 -9 -32 -20 -9 -10 -21 -18 -26
-17 -11 3 -86 -82 -101 -115 -7 -16 -17 -28 -21 -28 -5 0 -5 -6 0 -12 12 -21
12 -39 0 -43 -53 -16 -62 -14 -63 10 -1 14 1 25 6 25 13 0 5 43 -16 90 -12 25
-26 61 -33 80 -14 44 -134 190 -205 250 -161 136 -229 180 -299 195 -16 3 -58
34 -95 70 -37 36 -72 65 -78 65 -6 0 -30 18 -52 40 -22 22 -42 40 -45 40 -3 0
-35 20 -70 45 -36 25 -70 45 -76 45 -6 0 -11 5 -11 10 0 6 -7 10 -17 10 -9 0
-31 11 -49 25 -43 33 -106 55 -155 55 -41 0 -119 -26 -131 -44 -4 -6 -104 85
-240 222 l-234 232 -102 0 -102 0 0 -123z m4627 -214 c8 -21 -14 -103 -34
-125 -35 -39 -41 -21 -21 62 20 79 40 102 55 63z m-3291 -744 c0 -10 -3 -19
-6 -19 -12 0 -50 46 -44 53 11 11 50 -14 50 -34z m149 -15 c42 -20 54 -31 50
-43 -3 -10 2 -26 10 -37 8 -10 15 -27 15 -37 0 -20 52 -45 58 -28 2 6 8 8 14
5 6 -4 5 -10 -3 -15 -16 -9 -12 -14 18 -23 19 -6 22 -4 16 10 -4 12 -2 15 8
12 7 -2 16 -15 19 -29 3 -13 16 -29 29 -35 12 -6 28 -20 35 -30 34 -50 40
-174 8 -174 -21 0 -412 390 -412 411 0 21 39 32 47 13 8 -21 23 -17 23 6 0 25
-2 25 65 -6z m935 -14 c-13 -8 -13 -10 0 -10 9 0 11 -3 4 -10 -6 -6 -18 -8
-28 -4 -15 6 -15 7 1 20 10 7 23 13 28 14 6 0 3 -5 -5 -10z m697 -37 c13 -7
29 -13 38 -13 9 0 12 -6 9 -15 -5 -11 1 -15 20 -15 28 0 33 -9 14 -28 -9 -9
-9 -15 0 -24 9 -9 12 -8 12 5 0 9 9 21 20 27 16 9 18 8 14 -5 -4 -8 -1 -15 5
-15 6 0 11 6 11 13 0 8 7 14 15 14 11 0 12 -4 5 -11 -5 -5 -10 -13 -10 -16 0
-11 48 -30 52 -20 7 19 43 15 53 -7 5 -13 17 -21 29 -20 13 1 21 -6 26 -24 7
-25 7 -26 -39 -22 -30 3 -66 -3 -105 -16 -45 -16 -62 -18 -67 -9 -5 7 -13 -7
-20 -36 -10 -40 -14 -45 -22 -30 -6 10 -12 31 -13 47 -5 41 -12 49 -33 37 -12
-6 -22 -5 -31 3 -9 8 -11 8 -6 0 9 -16 -4 -44 -17 -36 -7 4 -8 -8 -4 -38 5
-32 4 -38 -3 -21 -11 25 -30 30 -30 7 0 -8 -4 -15 -10 -15 -5 0 -10 -5 -10
-11 0 -5 3 -8 8 -6 4 3 8 -6 8 -19 1 -13 -2 -24 -6 -24 -10 0 19 -79 37 -101
13 -16 19 -68 6 -55 -5 4 -8 11 -8 16 0 15 -95 79 -110 74 -17 -7 -20 -30 -5
-39 6 -3 10 -15 10 -26 0 -24 -20 -26 -21 -1 -1 15 -2 15 -6 1 -3 -11 -11 -15
-23 -12 -11 3 -17 9 -14 14 3 5 1 9 -4 9 -5 0 -13 -10 -17 -22 -6 -19 -8 -20
-12 -6 -2 9 -13 20 -24 23 -11 4 -16 11 -13 17 4 6 0 14 -7 19 -19 12 -29 11
-29 -2 0 -5 5 -7 10 -4 6 3 10 2 10 -4 0 -5 3 -18 6 -28 6 -15 4 -16 -7 -5
-17 16 -37 16 -21 0 16 -16 15 -25 -3 -25 -9 0 -16 10 -16 26 -2 24 -2 24 -6
4 -5 -24 -23 -32 -23 -11 0 6 -13 -4 -30 -22 -16 -18 -30 -43 -30 -53 0 -11
-3 -17 -7 -13 -8 7 -11 46 -16 179 -1 31 -5 57 -9 57 -5 0 -8 -9 -8 -20 0 -14
-5 -18 -17 -13 -15 5 -16 3 -5 -8 6 -7 12 -17 12 -22 0 -4 -6 -5 -12 0 -7 4
-22 6 -33 5 -17 -2 -17 -1 -5 7 10 7 11 11 2 11 -6 0 -11 3 -11 8 5 31 -2 43
-22 37 -18 -6 -21 -4 -17 13 4 14 0 22 -14 25 -16 5 -19 2 -15 -14 4 -16 0
-19 -28 -19 -20 0 -35 6 -39 15 -8 23 -23 18 -28 -10 -4 -16 -1 -25 8 -25 7 0
15 -6 17 -12 4 -10 8 -9 16 2 9 12 11 11 11 -7 0 -13 6 -23 14 -23 20 0 27
-27 10 -41 -12 -10 -19 -8 -36 10 -14 16 -23 20 -31 12 -6 -6 -30 -11 -54 -11
-24 0 -52 -5 -62 -12 -10 -6 -25 -8 -34 -5 -27 10 6 63 46 72 28 7 29 9 10 12
-29 5 -30 23 -2 23 11 0 17 5 14 10 -4 6 6 11 22 11 17 1 21 3 11 6 -20 5 -25
33 -7 33 7 0 17 8 24 17 12 16 16 15 49 -10 43 -34 48 -26 6 10 -36 30 -37 39
-6 68 13 12 25 28 28 36 2 7 11 14 19 15 32 3 59 17 64 35 4 11 10 17 15 14
14 -8 40 6 40 22 0 12 3 13 14 4 10 -8 21 -8 40 -1 31 12 70 4 87 -16 15 -18
48 -18 55 1 4 8 12 15 19 15 7 0 15 7 19 15 3 8 12 15 21 15 8 0 15 5 15 10 0
6 3 9 8 8 4 -1 20 4 37 11 20 8 36 9 50 2 40 -19 65 -23 65 -9 0 10 3 9 11 -2
8 -13 12 -12 26 8 9 13 19 19 22 15 3 -4 16 -14 28 -20z m-1507 -73 c0 -5 -7
-10 -15 -10 -8 0 -15 5 -15 10 0 6 7 10 15 10 8 0 15 -4 15 -10z m833 -77 c-7
-2 -19 -2 -25 0 -7 3 -2 5 12 5 14 0 19 -2 13 -5z m1337 -24 c0 -5 -4 -9 -10
-9 -5 0 -10 7 -10 16 0 8 5 12 10 9 6 -3 10 -10 10 -16z m-294 -3 c22 -23 17
-36 -10 -23 -13 6 -21 17 -19 24 6 17 11 16 29 -1z m-336 -42 c0 -8 -4 -12
-10 -9 -5 3 -10 13 -10 21 0 8 5 12 10 9 6 -3 10 -13 10 -21z m336 -108 c-9
-49 -26 -55 -26 -9 0 21 -3 49 -6 63 l-7 25 23 -22 c18 -17 21 -28 16 -57z
m-366 54 c0 -5 -4 -10 -10 -10 -5 0 -10 5 -10 10 0 6 5 10 10 10 6 0 10 -4 10
-10z m208 -43 c2 -10 -3 -17 -12 -17 -18 0 -29 16 -21 31 9 14 29 6 33 -14z
m-208 -7 c0 -5 -2 -10 -4 -10 -3 0 -8 5 -11 10 -3 6 -1 10 4 10 6 0 11 -4 11
-10z m-1062 -32 c-3 -7 -15 -14 -29 -15 -14 -1 -17 0 -6 3 9 3 17 10 17 15 0
5 5 9 11 9 6 0 9 -6 7 -12z m2027 -19 c-8 -12 40 -30 60 -23 23 9 32 -26 10
-38 -14 -8 -15 -12 -4 -19 11 -7 9 -10 -8 -15 -25 -7 -32 -24 -10 -24 7 0 13
-9 13 -21 0 -19 -2 -18 -23 7 -13 16 -22 33 -21 39 3 19 -14 75 -23 75 -5 0
-9 9 -9 21 0 11 5 17 10 14 6 -4 8 -11 5 -16z m-2811 -1 c-3 -4 1 -8 9 -8 21
0 46 -32 29 -37 -6 -3 -10 -8 -7 -13 3 -5 -3 -7 -12 -5 -11 1 -17 9 -15 20 3
14 -2 16 -26 10 -30 -6 -59 14 -33 23 11 4 11 6 1 12 -8 5 2 8 23 7 20 0 34
-5 31 -9z m3471 -28 l39 -40 -42 0 -42 0 0 40 c0 22 1 40 3 40 2 0 21 -18 42
-40z m-2218 0 c-1 -16 -5 -30 -9 -30 -10 0 -10 22 -2 44 9 24 13 19 11 -14z
m1526 -23 c-3 -5 -12 -6 -20 -3 -9 4 -23 1 -32 -6 -9 -7 -3 2 14 20 26 29 30
31 36 15 4 -10 4 -22 2 -26z m-1493 23 c0 -5 -5 -10 -11 -10 -5 0 -7 5 -4 10
3 6 8 10 11 10 2 0 4 -4 4 -10z m60 -31 c0 -5 -4 -9 -10 -9 -5 0 -10 7 -10 16
0 8 5 12 10 9 6 -3 10 -10 10 -16z m360 1 c0 -5 -2 -10 -4 -10 -3 0 -8 5 -11
10 -3 6 -1 10 4 10 6 0 11 -4 11 -10z m-1605 -49 c-9 -16 -25 -3 -18 15 4 10
9 12 15 6 6 -6 7 -15 3 -21z m525 15 c0 -2 -8 -10 -17 -17 -16 -13 -17 -12 -4
4 13 16 21 21 21 13z m1087 -41 c-16 -16 -37 -20 -37 -7 0 8 42 30 49 25 2 -1
-4 -9 -12 -18z m-886 -12 c-8 -15 -10 -15 -11 -2 0 17 10 32 18 25 2 -3 -1
-13 -7 -23z m373 -4 c24 -29 56 -82 56 -94 0 -6 -13 -19 -30 -28 -22 -14 -30
-15 -30 -5 0 40 -22 87 -42 90 -29 4 -35 28 -9 35 12 3 21 9 21 14 0 15 15 10
34 -12z m-506 -14 c10 18 11 18 12 3 0 -10 5 -18 10 -18 6 0 10 -7 10 -15 0
-8 -5 -15 -12 -15 -18 0 -48 31 -47 49 0 12 2 11 8 -4 8 -19 8 -19 19 0z
m1047 4 c11 -16 1 -19 -13 -3 -7 8 -8 14 -3 14 5 0 13 -5 16 -11z m281 -13 c6
-1 19 -10 29 -20 13 -13 20 -14 25 -6 4 7 14 10 21 8 8 -3 -3 -21 -34 -51 -51
-52 -63 -56 -71 -29 -6 19 -76 47 -76 31 0 -5 8 -9 18 -9 20 -1 58 -27 50 -36
-4 -3 -15 -1 -26 5 -26 14 -35 14 -27 1 3 -5 -1 -10 -9 -10 -10 0 -13 6 -10
15 4 8 1 15 -4 15 -9 0 -10 16 -3 63 0 4 17 5 36 1 31 -6 35 -4 35 16 0 17 4
21 18 15 9 -4 22 -8 28 -9z m-2359 -42 c-3 -3 -12 -4 -19 -1 -8 3 -5 6 6 6 11
1 17 -2 13 -5z m358 -14 c-4 -6 -1 -17 5 -25 8 -10 9 -15 2 -15 -14 0 -34 35
-25 44 10 10 25 7 18 -4z m1795 -50 c0 -5 16 -12 35 -16 36 -6 72 -47 66 -74
-7 -35 -20 -39 -74 -23 -35 10 -56 12 -67 5 -9 -5 -31 -8 -48 -6 -18 2 -32 -1
-32 -6 0 -6 -7 -10 -15 -10 -11 0 -15 12 -15 48 0 43 2 48 24 50 35 2 76 20
76 32 0 5 11 10 25 10 14 0 25 -4 25 -10z m137 -35 c0 -9 -9 -14 -24 -13 -22
2 -23 4 -7 15 23 17 31 16 31 -2z m-603 -19 c-3 -9 -12 -16 -20 -16 -11 0 -10
4 4 18 20 22 25 21 16 -2z m-64 -6 c0 -6 11 -16 25 -22 28 -13 36 -41 8 -31
-9 4 -14 2 -11 -3 7 -13 -30 -46 -38 -33 -4 7 -12 5 -22 -4 -29 -24 -52 -28
-53 -9 0 10 -5 6 -11 -10 -5 -16 -16 -28 -24 -28 -9 0 -12 5 -9 11 4 6 1 10
-6 8 -37 -5 -49 2 -49 27 0 19 4 25 15 20 8 -3 15 0 15 7 0 9 2 9 8 0 9 -14
44 -12 54 2 5 6 8 5 8 -3 0 -10 3 -10 15 2 8 8 15 19 15 25 0 6 6 11 14 11 7
0 16 9 19 20 5 20 27 28 27 10z m250 -14 c0 -8 -7 -16 -15 -20 -28 -10 -15
-23 22 -22 30 1 38 -3 41 -19 2 -11 1 -17 -3 -13 -11 11 -45 -10 -45 -27 0 -8
-5 -15 -11 -15 -16 0 -38 -31 -39 -52 0 -11 7 -18 19 -18 28 0 30 -9 15 -69
-8 -30 -13 -60 -10 -67 3 -7 -4 -14 -14 -17 -12 -3 -17 -12 -15 -23 2 -11 4
-26 5 -34 1 -10 4 -9 9 5 7 17 8 17 13 -8 4 -18 -1 -34 -13 -49 -11 -11 -20
-18 -20 -15 -1 4 -2 12 -3 17 0 6 -5 10 -10 9 -14 -1 -34 45 -24 57 4 6 5 14
1 17 -3 4 -1 7 7 7 10 0 10 3 0 14 -6 8 -18 12 -26 9 -8 -3 -14 0 -14 6 0 6 7
11 15 11 8 0 15 4 15 9 0 14 -34 8 -47 -9 -10 -13 -12 -10 -13 18 0 17 5 32
11 32 5 0 7 5 4 11 -4 6 -4 39 0 74 8 77 59 171 90 168 11 -1 24 5 28 13 10
18 27 18 27 0z m40 -16 c0 -5 -2 -10 -4 -10 -3 0 -8 5 -11 10 -3 6 -1 10 4 10
6 0 11 -4 11 -10z m-1066 -118 c82 -79 99 -102 76 -102 -5 0 -10 -9 -10 -20 0
-29 -19 -25 -58 13 l-34 32 25 -51 c24 -48 24 -50 6 -49 -10 1 -33 15 -50 31
l-31 29 20 -40 c16 -33 17 -42 7 -52 -11 -10 -20 -5 -44 23 -36 40 -38 38 -14
-11 15 -31 15 -37 3 -46 -16 -9 -28 1 -78 66 -17 22 -15 15 8 -26 35 -65 35
-65 14 -73 -11 -4 -28 6 -51 31 l-34 38 21 -42 c22 -47 25 -57 11 -48 -5 3
-11 -2 -13 -10 -2 -11 -13 -3 -35 26 -38 49 -42 45 -13 -11 24 -48 24 -45 0
-47 -12 -1 -32 13 -50 35 l-31 37 23 -48 c19 -41 20 -49 8 -58 -11 -7 -24 1
-52 33 l-38 43 25 -48 c19 -39 22 -52 12 -63 -10 -11 -17 -8 -39 16 -35 38
-43 38 -23 0 26 -51 -10 -72 -41 -25 -23 35 -29 24 -9 -15 14 -27 15 -34 3
-41 -7 -5 -21 -6 -30 -3 -11 3 -18 0 -18 -8 0 -7 -18 -21 -39 -31 -21 -10 -50
-28 -63 -40 -36 -32 -63 -46 -75 -39 -23 16 -108 131 -126 171 l-19 44 23 19
c13 10 53 34 87 54 l64 36 25 -24 c25 -22 25 -22 14 -1 -14 27 -14 36 -1 28 6
-3 10 4 10 17 1 23 1 23 21 -4 26 -35 45 -37 23 -3 -15 23 -15 25 1 25 12 0
15 5 10 17 -4 11 5 7 24 -11 34 -32 41 -25 14 14 -16 22 -16 23 0 17 12 -4 17
-1 17 10 0 13 7 10 32 -13 l32 -29 -17 27 c-21 34 -21 39 0 31 12 -5 15 -2 10
10 -9 23 2 21 31 -5 l25 -23 -12 23 c-10 18 -9 25 5 39 15 16 18 16 34 -5 25
-30 36 -28 16 3 -20 31 -20 36 1 28 13 -5 15 -3 9 13 -5 14 1 11 24 -11 l31
-30 -10 28 c-14 35 -14 40 -1 32 6 -3 10 2 10 11 0 14 6 12 31 -12 l31 -29
-16 33 c-9 18 -12 32 -6 32 5 0 10 8 10 17 0 13 7 10 31 -13 l31 -29 -17 34
c-9 18 -12 30 -6 27 6 -4 11 0 11 10 0 14 6 12 32 -12 30 -28 31 -26 13 19 -3
6 -1 19 5 27 8 12 14 10 41 -15 32 -30 31 -23 -2 25 -17 26 -17 26 6 25 16 0
53 -28 109 -83z m1176 48 c0 -5 -4 -10 -10 -10 -5 0 -10 5 -10 10 0 6 5 10 10
10 6 0 10 -4 10 -10z m-452 -32 c-2 -6 -10 -14 -16 -16 -7 -2 -10 2 -6 12 7
18 28 22 22 4z m35 -88 c3 -11 1 -20 -4 -20 -5 0 -9 9 -9 20 0 11 2 20 4 20 2
0 6 -9 9 -20z m44 -47 c-2 -68 -17 -103 -44 -103 -7 0 -13 9 -13 21 0 15 5 19
15 15 8 -3 15 -1 15 4 0 6 -9 10 -20 10 -22 0 -27 16 -7 23 9 3 9 7 -2 20 -9
11 -10 17 -2 17 6 0 11 -4 11 -10 0 -5 5 -10 10 -10 6 0 10 7 10 15 0 8 4 15
9 15 4 0 6 11 3 25 -2 14 0 25 6 25 7 0 10 -25 9 -67z m943 63 c0 -2 -7 -7
-16 -10 -8 -3 -12 -2 -9 4 6 10 25 14 25 6z m-50 -52 c0 -8 -4 -12 -10 -9 -5
3 -10 10 -10 16 0 5 5 9 10 9 6 0 10 -7 10 -16z m-96 -110 c9 -8 14 -19 11
-24 -3 -5 1 -10 7 -13 10 -3 10 -7 1 -17 -6 -7 -9 -19 -6 -26 3 -8 0 -21 -7
-29 -7 -9 -10 -19 -6 -23 4 -4 12 1 17 11 9 16 12 16 26 2 13 -13 13 -21 4
-41 -10 -22 -8 -26 16 -35 19 -7 28 -6 34 3 11 17 21 5 13 -16 -4 -11 -12 -15
-23 -10 -38 16 -51 16 -51 1 0 -9 14 -18 38 -22 l37 -8 -29 -12 c-23 -10 -25
-13 -12 -18 22 -9 11 -28 -12 -21 -10 4 -13 2 -7 -3 16 -12 16 -53 0 -53 -7 0
-16 -10 -18 -22 -4 -20 -4 -20 -6 4 0 14 5 29 12 32 6 3 -4 4 -24 2 -41 -3
-51 21 -12 30 13 4 23 10 23 15 0 5 -7 6 -15 3 -20 -8 -19 10 1 27 15 12 14
15 -6 31 -19 15 -22 25 -17 58 3 22 1 40 -4 40 -5 0 -7 11 -3 25 4 15 2 25 -5
25 -6 0 -8 7 -4 16 4 10 -1 22 -11 30 -14 10 -15 16 -6 33 13 25 23 26 44 5z
m-584 -4 c0 -5 -5 -10 -11 -10 -5 0 -7 5 -4 10 3 6 8 10 11 10 2 0 4 -4 4 -10z
m824 -146 c9 -22 -3 -32 -14 -14 -12 19 -12 30 -1 30 5 0 12 -7 15 -16z m-404
-318 c0 -11 -19 -15 -25 -6 -3 5 1 10 9 10 9 0 16 -2 16 -4z m-72 -31 c-10 -8
-68 -13 -68 -5 0 5 12 10 28 12 25 3 48 0 40 -7z m256 -30 c-7 -18 27 -95 50
-114 21 -18 20 -31 -1 -32 -15 0 -15 -2 -3 -7 8 -4 16 -17 17 -29 4 -36 -24
-27 -38 12 -7 19 -16 35 -20 35 -3 0 -9 19 -12 42 -3 24 -10 44 -15 46 -6 2
-4 16 5 32 15 31 27 41 17 15z m-137 -14 c0 -9 -7 -21 -16 -28 -14 -11 -14
-12 2 -13 23 0 12 -20 -12 -20 -10 0 -33 -7 -51 -16 -27 -14 -34 -14 -41 -3
-6 10 -9 11 -9 2 0 -7 -7 -13 -15 -13 -8 0 -15 5 -15 11 0 7 -7 17 -17 24 -22
16 -9 34 26 33 15 -1 34 3 42 8 16 10 78 30 95 30 6 1 11 -6 11 -15z m68 -1
c-3 -5 -12 -10 -18 -10 -7 0 -6 4 3 10 19 12 23 12 15 0z m478 -10 c-3 -11 -7
-20 -9 -20 -2 0 -4 9 -4 20 0 11 4 20 9 20 5 0 7 -9 4 -20z m-70 -59 c-16 -12
-39 -45 -25 -37 8 5 18 1 26 -10 9 -12 15 -14 20 -6 4 7 14 12 22 12 8 0 13
-4 10 -9 -3 -5 1 -12 10 -15 9 -4 14 -13 10 -21 -3 -9 0 -15 9 -15 23 0 18
-38 -5 -42 -15 -2 -17 -7 -10 -18 8 -13 11 -12 24 5 8 11 17 17 21 13 9 -9
-23 -56 -43 -61 -12 -3 -10 -5 6 -6 19 -1 21 -5 16 -26 -4 -15 -2 -25 5 -25
21 0 11 -21 -16 -32 -27 -11 -27 -12 -5 -15 24 -5 30 -19 10 -26 -7 -2 -1 -3
15 -1 15 2 27 0 27 -4 0 -11 -56 -43 -63 -36 -3 4 -19 3 -34 -1 l-28 -8 30 -7
30 -7 -35 -10 -35 -11 35 -2 c21 -2 27 -4 15 -7 -46 -10 -51 -13 -35 -23 11
-7 1 -10 -31 -10 -33 0 -49 5 -53 15 -3 8 -13 15 -21 15 -34 0 15 -32 68 -45
29 -7 42 -13 29 -14 -37 -2 -14 -21 26 -22 32 0 34 -1 14 -9 -12 -5 -29 -7
-37 -4 -8 4 -15 1 -15 -6 0 -6 -4 -9 -9 -6 -5 4 -11 1 -13 -6 -2 -6 -10 -8
-17 -4 -9 6 -9 11 0 22 9 11 9 14 -1 14 -8 0 -10 3 -7 6 7 7 -36 44 -51 44
-15 0 -22 26 -9 39 6 6 21 11 34 11 38 0 28 14 -42 66 -19 14 -19 14 8 8 44
-10 56 -10 59 1 2 6 -7 11 -20 13 -22 3 -23 4 -5 17 17 13 16 14 -9 15 -33 0
-48 20 -16 20 22 1 22 1 4 15 -19 15 -19 15 5 16 23 2 23 2 1 6 -18 4 -20 7
-9 18 8 7 25 15 38 18 19 3 18 5 -8 6 -33 1 -48 21 -17 21 14 0 14 3 4 15 -10
12 -10 15 4 15 24 0 19 27 -6 33 -17 5 -19 9 -9 21 7 9 8 16 2 20 -5 4 -12 2
-16 -4 -3 -5 -13 -10 -21 -10 -10 0 -3 11 18 30 19 18 40 29 51 26 9 -2 14 0
11 5 -3 5 5 18 18 29 13 11 19 19 14 20 -5 0 -17 -7 -27 -16 -11 -10 -19 -12
-24 -5 -7 12 41 34 55 26 5 -3 12 0 17 7 5 9 9 6 11 -11 2 -13 0 -26 -5 -30z
m-1976 7 c-3 -7 -5 -2 -5 12 0 14 2 19 5 13 2 -7 2 -19 0 -25z m2042 -22 c1
-5 -2 -6 -6 -3 -3 4 -15 -1 -25 -10 -12 -11 -22 -13 -28 -7 -7 7 -2 15 15 24
14 7 25 20 26 29 0 12 3 11 9 -4 5 -11 9 -24 9 -29z m-2041 -152 c0 -15 6 -30
13 -35 11 -8 10 -12 -5 -24 -18 -14 -19 -15 -2 -15 13 0 17 -5 13 -20 -3 -11
-1 -20 5 -20 6 0 8 -9 5 -20 -3 -11 -1 -22 3 -25 5 -3 12 -26 16 -51 6 -45 6
-47 -46 -99 -59 -59 -79 -58 -73 4 5 55 4 83 -6 95 -4 6 -8 32 -7 59 0 26 -2
48 -6 50 -7 2 -12 40 -9 72 1 11 15 27 34 36 49 25 65 23 65 -7z m785 -40 c-5
-13 -53 -26 -53 -15 0 4 5 12 11 18 15 15 48 12 42 -3z m38 -47 c6 -11 13 -49
15 -84 3 -50 1 -63 -10 -63 -8 0 -16 -8 -18 -17 -3 -16 -4 -16 -20 0 -9 9 -20
17 -24 17 -11 0 -74 -68 -74 -80 0 -5 -5 -10 -12 -10 -6 0 -39 -14 -73 -30
-55 -27 -66 -29 -91 -18 -33 14 -40 15 -73 17 -20 1 -21 3 -11 16 7 8 17 15
22 15 5 0 19 12 32 27 20 24 26 25 40 14 14 -12 16 -11 17 5 1 11 1 24 0 30
-2 19 47 57 65 50 9 -3 14 -12 11 -20 -4 -10 0 -12 15 -8 11 2 15 8 10 11 -14
10 -10 40 5 34 9 -4 11 0 7 12 -6 14 -3 16 14 11 11 -4 23 -2 27 3 4 7 0 8
-11 4 -13 -5 -15 -3 -7 13 6 10 8 24 6 31 -2 6 1 14 6 18 6 3 11 1 11 -6 0 -8
6 -6 18 4 10 10 26 17 35 17 9 0 18 4 22 10 8 13 34 1 46 -23z m-158 -42 c-3
-9 -8 -14 -10 -11 -3 3 -2 9 2 15 9 16 15 13 8 -4z m1433 -22 c-10 -10 -19 5
-10 18 6 11 8 11 12 0 2 -7 1 -15 -2 -18z m-19 -119 c-3 -3 -12 -4 -19 -1 -8
3 -5 6 6 6 11 1 17 -2 13 -5z m-10 -70 c-3 -3 -12 -4 -19 -1 -8 3 -5 6 6 6 11
1 17 -2 13 -5z m-2145 -46 c-7 -7 -12 -8 -12 -2 0 6 3 14 7 17 3 4 9 5 12 2 2
-3 -1 -11 -7 -17z m2175 -31 c0 -30 3 -58 6 -64 4 -6 0 -16 -8 -23 -13 -11
-13 -14 -1 -24 13 -10 13 -13 0 -31 -14 -18 -16 -17 -59 25 -24 24 -42 47 -39
52 3 4 -1 8 -9 8 -16 0 -30 24 -20 34 4 3 21 6 39 6 36 0 55 26 27 37 -14 6
-12 9 12 19 48 21 52 18 52 -39z m-1507 24 c0 -12 -20 -25 -27 -18 -7 7 6 27
18 27 5 0 9 -4 9 -9z m1398 -13 c-6 -16 -68 -23 -68 -8 0 6 3 9 8 7 4 -3 16
-1 27 4 29 11 37 11 33 -3z m-1258 -43 c0 -10 -10 -15 -26 -15 -22 0 -25 2
-14 15 7 8 19 15 26 15 8 0 14 -7 14 -15z m13 -50 c18 -25 18 -25 -5 -25 -13
0 -32 7 -43 16 -17 13 -18 16 -5 24 23 15 33 12 53 -15z m-183 -5 c8 -5 11
-10 5 -10 -5 0 -17 5 -25 10 -8 5 -10 10 -5 10 6 0 17 -5 25 -10z m604 -39
c-2 -2 -11 -1 -20 3 -14 5 -14 9 -3 22 12 14 14 14 20 -3 3 -10 5 -20 3 -22z
m-664 -1 c6 -11 8 -20 6 -20 -3 0 -10 9 -16 20 -6 11 -8 20 -6 20 3 0 10 -9
16 -20z m250 -20 c9 -16 8 -18 -5 -14 -8 4 -15 12 -15 20 0 20 7 17 20 -6z
m1840 4 c0 -2 -7 -4 -15 -4 -8 0 -15 4 -15 10 0 5 7 7 15 4 8 -4 15 -8 15 -10z
m-1396 -10 c9 -3 16 -14 15 -23 0 -9 -3 -11 -5 -4 -4 8 -17 10 -37 7 -30 -5
-31 -5 -13 10 23 18 20 18 40 10z m1439 -32 c21 -24 31 -72 15 -72 -7 0 -24
-3 -37 -7 -23 -6 -23 -6 -7 20 15 21 15 29 4 46 -7 12 -16 21 -20 21 -5 0 -8
4 -8 9 0 14 37 1 53 -17z m-439 -8 c8 -21 -13 -59 -25 -47 -11 11 -2 63 11 63
4 0 11 -7 14 -16z m-1752 -16 c-7 -7 -12 -8 -12 -2 0 6 3 14 7 17 3 4 9 5 12
2 2 -3 -1 -11 -7 -17z m854 -14 c-3 -8 -10 -12 -16 -9 -7 4 -6 14 2 28 12 24
24 8 14 -19z m32 -64 c-30 -38 -42 -38 -20 0 9 16 20 30 25 30 4 0 8 12 8 28
l2 27 4 -28 c3 -18 -3 -37 -19 -57z m932 63 c-1 -5 -9 -24 -20 -43 -15 -28
-19 -31 -20 -14 0 11 3 24 8 28 4 4 8 12 8 17 3 17 4 19 14 19 6 0 10 -3 10
-7z m-1775 -23 c3 -5 1 -10 -4 -10 -6 0 -11 5 -11 10 0 6 2 10 4 10 3 0 8 -4
11 -10z m193 -54 c-2 0 -13 -7 -26 -14 -19 -10 -25 -10 -37 1 -10 11 -11 17
-2 26 9 9 8 14 -3 22 -13 9 -12 10 3 5 9 -3 17 0 17 6 0 6 11 -1 26 -17 14
-15 24 -28 22 -29z m-551 25 c13 -11 24 -34 27 -55 5 -44 14 -58 29 -49 7 4 5
-2 -3 -12 -14 -17 -13 -18 6 -13 12 3 28 2 35 -3 11 -7 11 -9 1 -9 -7 0 -10
-4 -7 -10 3 -5 -2 -11 -12 -11 -17 -1 -17 -2 0 -6 9 -2 17 -11 17 -18 0 -8 15
-17 37 -21 l36 -7 -29 -15 c-23 -13 -25 -17 -12 -20 10 -2 30 4 45 12 15 9 35
18 45 22 9 3 18 15 21 25 4 16 1 19 -14 14 -14 -5 -19 -2 -19 14 0 11 5 23 10
26 7 4 6 14 -1 28 -10 21 -9 21 5 3 8 -10 22 -16 30 -13 9 4 16 -2 20 -16 6
-22 7 -22 21 -3 8 11 15 14 15 7 0 -7 4 -10 9 -7 18 11 41 -6 41 -31 0 -13 -4
-22 -9 -19 -5 3 -12 -1 -15 -10 -3 -8 -2 -12 4 -9 6 3 10 3 10 -2 0 -8 -34
-31 -89 -62 -18 -10 -26 -11 -29 -3 -5 16 -18 15 -37 -4 -11 -11 -14 -26 -9
-49 4 -25 1 -36 -13 -46 -10 -8 -20 -25 -21 -39 -5 -35 -11 -38 -28 -16 -11
16 -14 17 -14 4 0 -10 -7 -15 -17 -13 -10 2 -26 4 -35 4 -9 1 -24 8 -32 17
-15 14 -16 14 -16 -1 0 -9 -5 -13 -11 -10 -5 4 -9 17 -8 28 2 12 -5 37 -14 55
-16 29 -16 33 -2 38 8 3 15 10 15 15 0 5 -11 2 -24 -6 -23 -15 -23 -15 -20 12
2 16 1 22 -2 14 -5 -11 -8 -11 -15 0 -4 7 -3 21 2 31 7 14 6 18 -5 18 -8 0
-17 -8 -19 -17 -4 -14 -5 -12 -6 5 0 12 4 31 11 42 10 15 9 22 -4 37 -8 10
-13 23 -11 30 2 6 -1 14 -6 18 -6 3 -11 11 -11 16 0 11 89 109 99 109 3 -1 16
-9 28 -19z m457 4 c3 -8 1 -15 -3 -15 -5 0 -11 7 -15 15 -3 8 -1 15 3 15 5 0
11 -7 15 -15z m-50 -12 c-2 -10 0 -25 6 -33 8 -13 13 -13 30 -2 21 13 21 12 4
-13 -9 -14 -23 -25 -30 -25 -8 0 -14 -10 -14 -25 0 -19 -5 -25 -22 -25 -20 0
-23 6 -25 44 -1 28 4 49 13 57 8 6 14 18 14 25 0 8 6 14 14 14 8 0 12 -7 10
-17z m696 -13 c0 -5 -5 -10 -11 -10 -5 0 -7 5 -4 10 3 6 8 10 11 10 2 0 4 -4
4 -10z m37 -17 c-9 -9 -20 -14 -24 -10 -3 4 2 14 13 21 25 19 33 10 11 -11z
m1273 12 c0 -8 -4 -15 -9 -15 -13 0 -22 16 -14 24 11 11 23 6 23 -9z m-2225
-5 c3 -5 1 -10 -4 -10 -6 0 -11 5 -11 10 0 6 2 10 4 10 3 0 8 -4 11 -10z
m1062 -27 c-11 -12 -16 -12 -22 -2 -6 8 -4 10 4 5 8 -5 14 0 18 15 4 14 8 18
11 10 2 -7 -2 -20 -11 -28z m1138 7 c3 -5 14 -10 24 -10 9 0 26 -7 37 -15 18
-14 16 -15 -20 -9 -28 5 -37 4 -32 -5 4 -6 14 -11 22 -11 8 0 12 -4 9 -10 -3
-5 8 -30 25 -55 32 -47 34 -85 4 -85 -11 0 -13 -6 -9 -19 3 -11 1 -22 -4 -25
-6 -4 -6 -18 0 -39 12 -41 12 -42 -6 -27 -8 7 -15 19 -15 27 0 8 -7 21 -15 30
-8 8 -12 19 -9 25 4 6 10 5 15 -3 14 -23 10 -4 -5 27 -8 15 -12 32 -9 37 3 4
-5 19 -18 33 l-22 24 24 0 c23 1 23 1 4 12 -35 19 -55 46 -52 70 3 34 37 52
52 28z m-2139 -16 c-24 -17 -33 -18 -41 -4 -5 8 -11 7 -21 -1 -9 -7 -14 -8
-14 -1 0 13 11 17 58 19 34 2 36 1 18 -13z m214 -94 c0 -5 -4 -10 -10 -10 -5
0 -10 5 -10 10 0 6 5 10 10 10 6 0 10 -4 10 -10z m-26 -45 c-8 -19 -49 -37
-75 -32 -18 3 -15 5 11 6 27 1 32 4 20 11 -13 9 -11 13 9 31 18 14 26 17 32 8
4 -7 5 -18 3 -24z m132 -17 c-2 -11 1 -18 10 -18 8 0 14 -7 14 -15 0 -23 -58
-16 -66 8 -3 10 -3 21 0 24 3 4 6 -1 6 -10 0 -9 4 -17 9 -17 12 0 20 49 10 56
-5 3 -9 11 -9 17 0 7 7 3 16 -8 8 -11 13 -28 10 -37z m-106 -36 c-21 -7 29
-33 72 -37 60 -6 68 -19 71 -113 3 -73 1 -84 -20 -106 -26 -29 -30 -46 -8 -46
9 0 12 -6 9 -15 -4 -8 -15 -15 -25 -15 -10 0 -19 -4 -19 -9 0 -5 -3 -18 -7
-28 -6 -16 -5 -16 10 -4 15 12 17 10 17 -28 0 -22 -4 -41 -10 -41 -5 0 -10
-11 -10 -25 0 -14 -4 -25 -10 -25 -5 0 -10 -7 -10 -16 0 -10 6 -14 15 -11 8 4
17 2 20 -3 8 -14 -8 -18 -32 -9 -25 9 -31 43 -10 56 14 9 37 48 37 63 0 15
-41 33 -51 23 -6 -6 -28 8 -56 34 -25 24 -57 46 -70 49 -12 4 -23 10 -23 15 0
5 -7 9 -16 9 -15 0 -51 14 -111 43 -26 12 -30 27 -8 27 7 0 18 7 23 16 6 10
22 16 46 16 20 0 39 5 44 12 10 15 51 34 82 38 21 3 25 8 26 40 2 36 -15 56
-37 43 -5 -3 -18 -1 -29 5 -17 9 -29 6 -66 -15 -43 -25 -94 -31 -95 -10 0 6
17 15 39 22 22 6 52 19 68 29 30 20 81 27 89 13 8 -13 35 1 35 18 0 13 3 13
16 2 11 -9 12 -15 4 -17z m1916 -30 c-4 -3 -14 2 -24 12 -16 18 -16 18 6 6 13
-6 21 -14 18 -18z m-1174 -34 c-7 -7 -12 -8 -12 -2 0 14 12 26 19 19 2 -3 -1
-11 -7 -17z m-182 -79 c0 -11 -4 -17 -10 -14 -5 3 -10 13 -10 21 0 8 5 14 10
14 6 0 10 -9 10 -21z m90 -110 c0 -4 -9 -5 -20 -2 -11 3 -20 12 -20 19 0 12 4
12 20 2 11 -7 20 -16 20 -19z m17 -21 c-3 -8 -6 -5 -6 6 -1 11 2 17 5 13 3 -3
4 -12 1 -19z m-97 -17 c5 -11 10 -28 9 -38 0 -10 -5 -3 -10 15 -5 17 -14 32
-21 32 -7 0 -6 -5 2 -15 7 -8 9 -22 5 -32 -6 -15 -9 -13 -16 11 -13 45 10 65
31 27z m109 -28 c1 9 6 17 11 17 7 0 7 -7 0 -21 -7 -11 -9 -28 -6 -37 5 -13 2
-12 -9 2 -8 11 -15 29 -14 40 0 21 1 21 9 1 7 -17 9 -17 9 -2z m-744 -13 c3
-5 2 -10 -4 -10 -5 0 -13 5 -16 10 -3 6 -2 10 4 10 5 0 13 -4 16 -10z m282
-82 c-3 -8 -6 -5 -6 6 -1 11 2 17 5 13 3 -3 4 -12 1 -19z m-147 2 c0 -5 -4
-10 -10 -10 -5 0 -10 5 -10 10 0 6 5 10 10 10 6 0 10 -4 10 -10z m158 -62 c-5
-23 -12 -45 -15 -48 -6 -6 6 70 13 82 11 17 11 6 2 -34z m312 11 c0 -5 -4 -9
-10 -9 -5 0 -10 7 -10 16 0 8 5 12 10 9 6 -3 10 -10 10 -16z m1122 -9 c3 -16
1 -35 -4 -42 -4 -8 -8 4 -8 30 0 49 6 55 12 12z m-1385 -22 c-3 -7 -5 -2 -5
12 0 14 2 19 5 13 2 -7 2 -19 0 -25z m253 -59 c0 -6 -4 -7 -10 -4 -5 3 -10 11
-10 16 0 6 5 7 10 4 6 -3 10 -11 10 -16z m-134 -14 c0 -14 -7 -25 -13 -25 -16
0 -16 5 -1 30 16 25 16 25 14 -5z m1307 -15 c5 0 17 -8 26 -18 24 -27 48 -33
66 -16 8 9 15 11 15 5 0 -6 8 -12 18 -12 16 -1 15 -2 -1 -6 -12 -3 -17 -12
-15 -27 1 -13 -4 -31 -11 -40 -8 -9 -15 -29 -16 -45 -1 -23 2 -27 29 -29 17
-2 40 -12 52 -23 21 -19 48 -88 36 -90 -16 -2 -38 -8 -56 -15 -16 -6 -18 -4
-13 9 11 29 -2 48 -29 41 -15 -4 -24 -2 -24 6 0 7 -7 10 -16 6 -9 -4 -13 -2
-8 5 3 6 8 35 9 65 2 29 7 64 10 76 6 18 5 20 -5 11 -9 -8 -17 -7 -31 5 -10 9
-19 22 -19 28 0 19 -24 34 -40 24 -25 -15 -51 7 -44 38 10 41 13 43 36 22 12
-11 26 -20 31 -20z m-1203 4 c0 -8 -5 -12 -10 -9 -6 4 -8 11 -5 16 9 14 15 11
15 -7z m-380 -28 c0 -3 -4 -8 -10 -11 -5 -3 -10 -1 -10 4 0 6 5 11 10 11 6 0
10 -2 10 -4z m545 -126 c0 -16 -3 -30 -7 -30 -5 0 -8 14 -8 30 0 17 3 30 8 30
4 0 7 -13 7 -30z m165 1 c0 -5 -7 -14 -15 -21 -12 -10 -15 -10 -15 2 0 8 3 18
7 21 9 10 23 9 23 -2z m-139 -58 c-9 -16 -10 -14 -11 12 0 21 3 26 11 18 8 -8
8 -16 0 -30z m1479 22 c0 -8 4 -15 9 -15 17 0 22 -38 9 -59 -10 -17 -9 -23 5
-39 21 -23 21 -28 1 -36 -37 -14 -57 40 -33 86 7 12 7 23 2 27 -11 7 -12 51
-1 51 4 0 8 -7 8 -15z m-1930 -55 c0 -5 -2 -10 -4 -10 -3 0 -8 5 -11 10 -3 6
-1 10 4 10 6 0 11 -4 11 -10z m992 -37 c-3 -16 -7 -22 -10 -15 -4 13 4 42 11
42 2 0 2 -12 -1 -27z m773 -34 c4 -6 5 -12 2 -15 -7 -7 -37 7 -37 17 0 13 27
11 35 -2z m-470 -29 c3 -5 -1 -10 -9 -10 -8 0 -18 5 -21 10 -3 6 1 10 9 10 8
0 18 -4 21 -10z m785 -14 c0 -3 -4 -8 -10 -11 -5 -3 -10 -1 -10 4 0 6 5 11 10
11 6 0 10 -2 10 -4z m-496 -21 c8 -8 22 -12 30 -9 9 3 16 1 16 -5 0 -6 -4 -11
-10 -11 -5 0 -10 -7 -10 -15 0 -11 -10 -14 -38 -13 -37 1 -38 2 -34 35 4 36
21 42 46 18z m436 -7 c22 -23 27 -72 9 -84 -6 -3 -28 10 -48 30 -33 34 -35 38
-19 50 10 7 15 16 11 19 -3 4 1 7 10 7 9 0 25 -10 37 -22z m-185 -78 c-5 -8
-11 -8 -17 -2 -6 6 -7 16 -3 22 5 8 11 8 17 2 6 -6 7 -16 3 -22z m-1715 -5 c0
-8 -4 -15 -10 -15 -5 0 -10 7 -10 15 0 8 5 15 10 15 6 0 10 -7 10 -15z m35
-26 c-4 -5 -1 -9 4 -9 6 0 11 -5 11 -11 0 -8 -4 -9 -13 0 -8 6 -16 8 -20 5 -3
-3 -3 3 0 15 3 11 9 18 14 15 5 -3 7 -10 4 -15z m1613 -11 c16 -16 15 -28 -2
-28 -7 0 -16 9 -19 20 -6 23 3 26 21 8z m-108 -52 c0 -7 10 -18 23 -25 l22
-11 -22 6 c-13 3 -23 1 -23 -5 0 -6 -3 -11 -7 -11 -5 0 -9 16 -10 35 -1 20 3
33 8 30 5 -4 9 -12 9 -19z m-1786 -41 c-7 -16 -24 -21 -24 -6 0 8 7 13 27 20
1 1 0 -6 -3 -14z m1657 -32 c-8 -15 -10 -15 -11 -2 0 17 10 32 18 25 2 -3 -1
-13 -7 -23z m189 7 c0 -5 -4 -10 -10 -10 -5 0 -10 5 -10 10 0 6 5 10 10 10 6
0 10 -4 10 -10z m-1860 -32 c0 -16 -3 -19 -11 -11 -6 6 -8 16 -5 22 11 17 16
13 16 -11z m1667 -40 c-3 -7 -5 -2 -5 12 0 14 2 19 5 13 2 -7 2 -19 0 -25z
m-417 -42 c0 -2 -7 -6 -15 -10 -8 -3 -15 -1 -15 4 0 6 7 10 15 10 8 0 15 -2
15 -4z m557 -2 c-3 -3 -12 -4 -19 -1 -8 3 -5 6 6 6 11 1 17 -2 13 -5z"/>
<path d="M3174 4043 c-6 -10 -8 -26 -5 -37 6 -14 9 -11 18 18 12 38 5 48 -13
19z"/>
<path d="M3232 4020 c0 -14 2 -19 5 -12 2 6 2 18 0 25 -3 6 -5 1 -5 -13z"/>
<path d="M2425 3970 c3 -5 8 -10 11 -10 2 0 4 5 4 10 0 6 -5 10 -11 10 -5 0
-7 -4 -4 -10z"/>
<path d="M2436 3895 c4 -8 11 -15 16 -15 6 0 5 6 -2 15 -7 8 -14 15 -16 15 -2
0 -1 -7 2 -15z"/>
<path d="M2380 3811 c0 -5 7 -12 16 -15 14 -5 15 -4 4 9 -14 17 -20 19 -20 6z"/>
<path d="M2738 3165 c-6 -28 8 -43 24 -27 11 11 2 52 -12 52 -4 0 -10 -11 -12
-25z"/>
<path d="M3390 2941 c-6 -12 -7 -21 -1 -21 10 0 24 30 17 37 -2 3 -9 -5 -16
-16z"/>
<path d="M3401 2514 c0 -11 3 -14 6 -6 3 7 2 16 -1 19 -3 4 -6 -2 -5 -13z"/>
<path d="M3411 2464 c0 -11 3 -14 6 -6 3 7 2 16 -1 19 -3 4 -6 -2 -5 -13z"/>
<path d="M3658 2443 c7 -3 16 -2 19 1 4 3 -2 6 -13 5 -11 0 -14 -3 -6 -6z"/>
<path d="M3730 2390 c-12 -8 -11 -10 8 -10 12 0 22 5 22 10 0 13 -11 13 -30 0z"/>
<path d="M3750 2330 c-13 -9 -13 -10 0 -10 8 0 22 5 30 10 13 9 13 10 0 10 -8
0 -22 -5 -30 -10z"/>
<path d="M3720 2310 c0 -5 5 -10 11 -10 5 0 7 5 4 10 -3 6 -8 10 -11 10 -2 0
-4 -4 -4 -10z"/>
<path d="M3708 2213 c-10 -2 -18 -9 -18 -14 0 -6 10 -5 23 2 37 20 36 23 -5
12z"/>
<path d="M3740 2140 c0 -5 -10 -10 -22 -11 -22 0 -22 -1 -3 -8 23 -9 52 -3 62
12 3 6 1 7 -5 3 -7 -4 -12 -2 -12 3 0 6 -4 11 -10 11 -5 0 -10 -4 -10 -10z"/>
<path d="M2272 1568 c-5 -8 -6 -22 -1 -33 7 -18 8 -17 8 7 1 14 7 29 14 31 7
4 8 6 1 6 -6 1 -16 -5 -22 -11z"/>
<path d="M2328 1343 c7 -3 16 -2 19 1 4 3 -2 6 -13 5 -11 0 -14 -3 -6 -6z"/>
<path d="M1792 5063 c-16 -3 -22 -9 -18 -20 7 -17 -39 -181 -55 -197 -19 -20
-8 -26 47 -26 47 0 55 2 50 16 -8 20 13 91 31 105 17 14 17 0 2 -52 -14 -47
-1 -69 41 -69 32 0 53 21 44 43 -3 9 -1 32 6 51 21 63 -8 98 -64 77 -29 -12
-30 -12 -16 23 7 19 6 29 -6 41 -16 15 -20 16 -62 8z"/>
<path d="M2042 5053 c-13 -26 -4 -43 23 -43 24 0 42 30 30 50 -10 16 -44 12
-53 -7z"/>
<path d="M2460 5055 c-16 -20 -6 -45 19 -45 26 0 45 32 29 48 -16 16 -33 15
-48 -3z"/>
<path d="M3963 5063 c-7 -2 -13 -16 -13 -29 0 -22 4 -25 28 -22 21 2 27 8 27
28 0 24 -17 34 -42 23z"/>
<path d="M2172 5034 c-34 -14 -52 -46 -44 -76 2 -10 22 -32 43 -49 22 -17 39
-35 39 -40 0 -16 -49 -9 -62 9 -26 36 -38 35 -54 -4 -18 -42 -6 -67 21 -44 12
10 21 10 41 1 61 -27 134 4 134 59 0 21 -12 38 -47 68 -41 35 -45 42 -30 48
13 4 27 -2 48 -22 33 -31 43 -27 54 25 7 34 7 34 -23 28 -17 -3 -43 -2 -59 2
-20 6 -40 4 -61 -5z"/>
<path d="M1510 5014 c-14 -36 -13 -44 9 -44 10 0 25 10 34 23 8 12 18 19 22
15 11 -10 -24 -145 -41 -159 -22 -18 -6 -29 45 -29 48 0 48 0 54 38 8 60 38
152 49 152 5 0 12 -9 15 -20 11 -42 53 -18 53 31 0 18 -8 19 -115 19 -115 0
-116 0 -125 -26z"/>
<path d="M2562 5017 c-38 -40 -28 -73 36 -116 18 -12 30 -27 27 -32 -11 -16
-38 -9 -65 16 -31 30 -45 21 -56 -33 -7 -34 10 -44 33 -21 8 8 17 8 31 0 47
-25 127 0 138 43 8 32 -8 60 -51 86 -37 23 -47 50 -18 50 9 0 29 -11 43 -25
30 -28 43 -22 55 26 l6 25 -79 2 c-71 1 -81 -1 -100 -21z"/>
<path d="M3192 5033 c45 -88 53 -150 24 -182 -22 -24 -12 -31 48 -31 l51 0 0
39 c0 53 47 120 82 118 29 -2 49 22 40 47 -12 30 -54 19 -88 -24 -36 -45 -53
-43 -47 6 l4 34 -59 0 c-32 0 -57 -3 -55 -7z"/>
<path d="M3523 5027 c6 -16 -31 -157 -44 -171 -23 -24 -8 -36 44 -36 l52 0 0
39 c0 48 12 62 31 37 17 -24 39 -9 47 32 7 38 -1 46 -29 27 -23 -14 -24 -14
-24 4 0 51 39 71 60 31 6 -11 19 -20 30 -20 10 0 21 -4 24 -9 6 -9 -22 -101
-35 -115 -18 -20 -7 -26 47 -26 48 0 55 2 50 17 -4 9 1 38 10 65 15 47 17 48
34 33 26 -24 54 -15 58 17 4 32 -28 54 -56 39 -11 -6 -24 -6 -33 0 -7 5 -29 6
-46 3 -30 -6 -33 -4 -33 20 l0 26 -96 0 c-76 0 -95 -3 -91 -13z"/>
<path d="M4046 5026 c6 -16 -33 -166 -47 -180 -20 -22 -5 -26 85 -26 l94 0 12
31 c19 45 0 57 -39 24 -37 -32 -61 -28 -54 9 7 33 20 41 39 25 18 -15 30 -4
39 34 8 29 -10 38 -33 15 -17 -17 -24 -5 -16 26 8 32 49 37 59 6 3 -11 13 -20
21 -20 16 0 38 46 28 61 -3 5 -48 9 -99 9 -77 0 -93 -3 -89 -14z"/>
<path d="M2008 4993 c-11 -3 -17 -13 -16 -26 2 -27 -22 -116 -33 -123 -23 -14
-4 -24 47 -24 46 0 55 3 50 15 -3 8 2 45 12 80 15 58 15 67 2 75 -16 10 -33
11 -62 3z"/>
<path d="M2424 4990 c-16 -6 -20 -15 -17 -32 2 -13 -5 -48 -16 -78 -12 -30
-21 -56 -21 -57 0 -2 23 -3 50 -3 44 0 50 2 50 21 0 11 7 46 16 77 16 53 15
56 -2 69 -20 15 -30 15 -60 3z"/>
<path d="M2843 4990 c-14 -6 -21 -15 -17 -24 5 -12 -11 -80 -31 -128 -6 -16
-1 -18 44 -18 50 0 51 1 51 30 0 37 25 100 39 100 14 0 14 -7 -3 -55 -17 -50
-6 -75 32 -75 36 0 73 26 54 38 -10 7 -10 16 0 46 13 39 36 47 29 11 -2 -11
-5 -36 -5 -55 -1 -32 2 -35 29 -38 36 -3 77 23 57 36 -10 7 -10 15 -2 36 28
74 -3 121 -61 92 -26 -13 -32 -13 -58 2 -26 15 -31 15 -53 0 -20 -14 -27 -14
-43 -2 -21 16 -31 16 -62 4z"/>
<path d="M3922 4989 c-13 -5 -21 -13 -17 -19 7 -12 -23 -117 -36 -125 -23 -15
-4 -25 47 -25 46 0 55 3 50 15 -3 8 3 43 14 78 18 58 19 63 3 75 -19 14 -29
14 -61 1z"/>
<path d="M4272 4993 c-15 -3 -22 -11 -20 -21 3 -20 -21 -113 -33 -126 -18 -20
-8 -26 41 -26 47 0 50 2 50 25 0 32 24 90 40 100 10 6 11 1 6 -21 -23 -92 -19
-104 35 -104 28 0 63 30 43 37 -9 3 -8 16 2 50 18 60 18 60 -11 79 -22 14 -27
14 -54 1 -26 -13 -32 -13 -42 -1 -12 14 -16 15 -57 7z"/>
<path d="M690 3015 c0 -9 6 -12 15 -9 8 4 12 10 9 15 -8 14 -24 10 -24 -6z"/>
<path d="M2014 2937 c-7 -9 -6 -22 4 -46 10 -27 16 -31 23 -20 5 8 8 21 8 29
0 10 -3 8 -9 -5 l-9 -20 -2 20 c-1 11 -2 28 -1 38 2 20 1 20 -14 4z"/>
<path d="M2192 2805 c-11 -13 -10 -15 5 -15 10 0 24 4 31 9 11 7 10 10 -3 15
-20 7 -17 8 -33 -9z"/>
<path d="M860 2791 c0 -7 16 -42 35 -78 19 -36 35 -69 35 -74 0 -5 -13 -7 -30
-4 -17 3 -30 1 -30 -5 0 -5 10 -10 23 -11 12 0 46 -3 75 -5 37 -4 52 -2 47 5
-3 6 -13 11 -20 11 -16 0 -55 30 -55 42 0 4 -18 36 -40 70 -22 35 -40 57 -40
49z"/>
<path d="M2156 2774 c-3 -8 -9 -13 -13 -12 -12 4 -58 -31 -51 -38 6 -5 56 22
68 37 3 3 12 8 19 11 12 4 12 5 -1 11 -10 3 -19 0 -22 -9z"/>
<path d="M2010 2731 c0 -5 5 -13 10 -16 6 -3 10 -2 10 4 0 5 -4 13 -10 16 -5
3 -10 2 -10 -4z"/>
<path d="M2060 2710 c0 -5 -7 -10 -15 -10 -8 0 -15 -4 -15 -10 0 -13 11 -12
33 4 19 15 22 26 7 26 -5 0 -10 -4 -10 -10z"/>
<path d="M1950 2702 c0 -5 6 -17 14 -27 13 -18 14 -18 9 8 -5 24 -23 39 -23
19z"/>
<path d="M992 2593 c-13 -3 -22 -8 -20 -12 10 -23 105 -152 115 -155 7 -3 -11
29 -39 70 -41 61 -48 77 -38 89 7 8 11 14 9 14 -2 -1 -14 -4 -27 -6z"/>
<path d="M1130 2494 c0 -6 7 -19 16 -30 14 -18 14 -18 3 6 -14 31 -19 36 -19
24z"/>
<path d="M1462 2460 c0 -14 2 -19 5 -12 2 6 2 18 0 25 -3 6 -5 1 -5 -13z"/>
<path d="M1075 2385 c11 -34 11 -40 -3 -37 -14 3 44 -84 63 -96 5 -3 4 2 -3
11 -28 33 -6 35 33 3 32 -27 37 -36 27 -48 -9 -11 -9 -17 0 -26 21 -21 30 -13
24 22 -4 21 -23 51 -49 77 -24 24 -56 60 -71 79 -16 20 -25 27 -21 15z"/>
<path d="M1180 2395 c0 -13 51 -117 56 -113 6 6 -42 118 -50 118 -4 0 -6 -2
-6 -5z"/>
<path d="M1540 2389 c0 -5 5 -7 10 -4 6 3 10 8 10 11 0 2 -4 4 -10 4 -5 0 -10
-5 -10 -11z"/>
<path d="M4080 2091 c0 -11 4 -21 9 -21 18 0 21 18 6 30 -13 10 -15 9 -15 -9z"/>
<path d="M3980 2070 c0 -5 5 -10 10 -10 6 0 10 5 10 10 0 6 -4 10 -10 10 -5 0
-10 -4 -10 -10z"/>
<path d="M4190 2071 c0 -10 19 -25 25 -20 1 2 -3 10 -11 17 -8 7 -14 8 -14 3z"/>
<path d="M4090 2046 c0 -9 7 -12 21 -9 16 4 17 8 7 14 -19 13 -28 11 -28 -5z"/>
<path d="M4185 2029 c-4 -6 -13 -8 -21 -5 -7 3 -16 1 -19 -5 -4 -5 1 -12 9
-15 9 -3 13 -10 10 -16 -3 -5 -11 -5 -19 2 -9 8 -15 8 -20 0 -3 -5 2 -10 12
-10 17 -1 16 -2 -2 -17 l-20 -16 20 8 c11 4 28 10 38 12 11 4 16 11 12 21 -3
8 2 23 11 33 10 11 12 19 6 19 -6 0 -14 -5 -17 -11z"/>
<path d="M4188 1968 c-11 -11 -14 -20 -7 -24 8 -4 7 -9 -2 -16 -9 -5 -4 -6 14
-2 17 4 27 2 27 -5 0 -6 -5 -11 -11 -11 -8 0 -8 -4 -1 -12 12 -16 4 -78 -11
-78 -7 0 -7 -4 1 -12 9 -9 17 -7 34 9 33 30 83 53 115 53 15 0 34 4 41 8 17
12 -54 76 -88 78 -14 2 -31 3 -38 3 -7 1 -11 5 -8 10 11 17 -49 17 -66 -1z
m129 -34 c-3 -3 -12 -4 -19 -1 -8 3 -5 6 6 6 11 1 17 -2 13 -5z"/>
<path d="M3182 1370 c0 -14 2 -19 5 -12 2 6 2 18 0 25 -3 6 -5 1 -5 -13z"/>
<path d="M3740 1230 c0 -5 5 -10 10 -10 6 0 10 5 10 10 0 6 -4 10 -10 10 -5 0
-10 -4 -10 -10z"/>
<path d="M3672 1072 c-1 -14 -8 -30 -15 -34 -9 -4 -12 -19 -9 -37 2 -17 8 -28
13 -25 5 3 9 -4 9 -15 0 -12 -6 -21 -14 -21 -8 0 -18 -5 -22 -12 -4 -7 -3 -8
4 -4 8 5 12 0 12 -13 0 -11 -5 -23 -10 -26 -7 -4 -6 -13 1 -26 11 -22 24 -17
24 9 1 29 37 142 45 142 5 0 11 -6 13 -12 3 -7 6 -4 6 8 1 11 -8 30 -19 42
-11 12 -20 26 -20 31 0 23 -16 17 -18 -7z"/>
<path d="M3720 1070 c0 -11 4 -20 9 -20 6 0 9 9 8 20 -1 11 -5 20 -9 20 -4 0
-8 -9 -8 -20z"/>
<path d="M3700 951 c0 -12 5 -21 10 -21 6 0 10 6 10 14 0 8 -4 18 -10 21 -5 3
-10 -3 -10 -14z"/>
<path d="M3121 914 c0 -11 3 -14 6 -6 3 7 2 16 -1 19 -3 4 -6 -2 -5 -13z"/>
<path d="M2672 770 c0 -14 2 -19 5 -12 2 6 2 18 0 25 -3 6 -5 1 -5 -13z"/>
<path d="M2510 755 c-20 -24 -6 -28 15 -5 10 11 13 20 8 20 -6 0 -16 -7 -23
-15z"/>
<path d="M2560 730 c0 -5 6 -10 14 -10 8 0 18 5 21 10 3 6 -3 10 -14 10 -12 0
-21 -4 -21 -10z"/>
<path d="M2708 728 c-22 -18 -31 -49 -12 -41 7 3 14 11 14 19 0 7 8 18 18 23
9 6 12 11 6 11 -5 0 -17 -6 -26 -12z"/>
<path d="M2650 721 c0 -6 5 -13 10 -16 6 -3 10 1 10 9 0 9 -4 16 -10 16 -5 0
-10 -4 -10 -9z"/>
<path d="M2745 690 c3 -5 11 -10 16 -10 6 0 7 5 4 10 -3 6 -11 10 -16 10 -6 0
-7 -4 -4 -10z"/>
<path d="M2935 690 c3 -5 11 -10 16 -10 6 0 7 5 4 10 -3 6 -11 10 -16 10 -6 0
-7 -4 -4 -10z"/>
<path d="M2721 673 c-1 -7 8 -17 19 -23 14 -7 20 -7 20 0 0 5 -6 10 -14 10 -8
0 -17 6 -19 13 -4 9 -6 9 -6 0z"/>
<path d="M2800 670 c0 -5 5 -10 11 -10 5 0 7 5 4 10 -3 6 -8 10 -11 10 -2 0
-4 -4 -4 -10z"/>
<path d="M2835 660 c-3 -5 -1 -10 4 -10 6 0 11 5 11 10 0 6 -2 10 -4 10 -3 0
-8 -4 -11 -10z"/>
<path d="M3086 641 c-4 -7 -5 -15 -2 -18 9 -9 19 4 14 18 -4 11 -6 11 -12 0z"/>
<path d="M3756 526 c3 -9 11 -16 16 -16 13 0 5 23 -10 28 -7 2 -10 -2 -6 -12z"/>
<path d="M3180 486 c0 -7 7 -19 15 -26 9 -7 13 -20 10 -27 -7 -19 16 -12 29 9
7 11 5 20 -5 30 -22 22 -49 30 -49 14z"/>
<path d="M3541 434 c0 -11 3 -14 6 -6 3 7 2 16 -1 19 -3 4 -6 -2 -5 -13z"/>
<path d="M2980 430 c0 -5 5 -10 10 -10 6 0 10 5 10 10 0 6 -4 10 -10 10 -5 0
-10 -4 -10 -10z"/>
<path d="M3560 380 c0 -5 5 -10 10 -10 6 0 10 5 10 10 0 6 -4 10 -10 10 -5 0
-10 -4 -10 -10z"/>
<path d="M3166 371 c-4 -5 3 -7 14 -4 23 6 26 13 6 13 -8 0 -17 -4 -20 -9z"/>
<path d="M3100 357 c0 -19 16 -31 24 -18 3 5 -1 14 -9 21 -12 10 -15 10 -15
-3z"/>
<path d="M2455 330 c-3 -5 -1 -10 4 -10 6 0 11 5 11 10 0 6 -2 10 -4 10 -3 0
-8 -4 -11 -10z"/>
<path d="M3438 278 c-16 -5 -28 -14 -28 -19 0 -5 0 -12 0 -16 0 -5 6 -8 13 -8
6 0 18 -6 25 -12 16 -15 36 -17 27 -3 -3 6 1 13 9 16 9 3 14 10 11 15 -3 4
-12 6 -20 2 -9 -3 -15 1 -15 10 0 9 8 18 18 20 11 3 12 5 2 5 -8 0 -27 -4 -42
-10z"/>
<path d="M3150 272 c0 -10 21 -32 31 -32 4 0 5 9 2 20 -5 19 -33 29 -33 12z"/>
<path d="M2890 240 c0 -5 10 -10 23 -10 18 0 19 2 7 10 -19 13 -30 13 -30 0z"/>
<path d="M3130 240 c0 -5 5 -10 10 -10 6 0 10 5 10 10 0 6 -4 10 -10 10 -5 0
-10 -4 -10 -10z"/>
<path d="M3060 223 c0 -14 -5 -21 -12 -18 -22 8 -50 -21 -43 -44 5 -16 2 -21
-12 -22 -15 0 -14 -2 5 -9 26 -11 26 -10 8 -45 -13 -25 -13 -30 7 -56 l21 -29
189 0 c161 0 188 2 178 14 -12 14 -50 25 -108 30 -41 3 -51 12 -24 21 30 9 26
20 -9 21 -36 1 -50 12 -31 23 9 6 10 11 2 15 -6 4 -9 11 -7 14 2 4 -4 18 -14
32 -15 19 -21 22 -32 12 -19 -15 -32 -3 -16 15 6 7 7 17 3 21 -4 4 -10 1 -12
-5 -6 -17 -18 -16 -37 3 -15 14 -16 14 -16 -3 0 -15 -3 -14 -20 7 -19 25 -20
25 -20 3z m140 -63 c0 -5 -5 -10 -11 -10 -5 0 -7 5 -4 10 3 6 8 10 11 10 2 0
4 -4 4 -10z"/>
<path d="M2933 209 c-25 -9 -30 -19 -10 -19 15 0 43 17 37 23 -3 3 -15 1 -27
-4z"/>
<path d="M4001 204 c13 -16 29 -19 29 -5 0 5 -9 11 -21 14 -16 4 -18 3 -8 -9z"/>
<path d="M3510 200 l-25 -8 27 -1 c15 -1 30 4 33 9 7 11 0 11 -35 0z"/>
<path d="M2690 170 c0 -19 3 -21 12 -12 9 9 9 15 0 24 -9 9 -12 7 -12 -12z"/>
<path d="M3576 135 c4 -8 15 -15 26 -15 17 0 18 3 8 15 -7 8 -19 15 -26 15 -8
0 -11 -6 -8 -15z"/>
<path d="M2540 100 c-8 -5 -23 -7 -32 -4 -10 3 -18 1 -18 -5 0 -5 -8 -17 -17
-27 -16 -16 -16 -16 7 -9 25 8 80 43 80 51 0 6 -3 5 -20 -6z"/>
<path d="M2705 100 c3 -5 8 -10 11 -10 2 0 4 5 4 10 0 6 -5 10 -11 10 -5 0 -7
-4 -4 -10z"/>
<path d="M2491 34 c0 -11 3 -14 6 -6 3 7 2 16 -1 19 -3 4 -6 -2 -5 -13z"/>
<path d="M2575 40 c28 -12 55 -12 55 0 0 6 -17 10 -37 9 -31 0 -34 -2 -18 -9z"/>
<path d="M2667 43 c-4 -3 -7 -11 -7 -17 0 -6 5 -5 12 2 6 6 9 14 7 17 -3 3 -9
2 -12 -2z"/>
<path d="M2690 17 c0 -10 8 -17 18 -17 9 0 13 4 7 8 -5 4 -13 11 -17 16 -5 5
-8 2 -8 -7z"/>
</g>
</svg>
