<?xml version="1.0" standalone="no"?>
<!DOCTYPE svg PUBLIC "-//W3C//DTD SVG 20010904//EN"
 "http://www.w3.org/TR/2001/REC-SVG-20010904/DTD/svg10.dtd">
<svg version="1.0" xmlns="http://www.w3.org/2000/svg"
 width="1300.000000pt" height="1300.000000pt" viewBox="0 0 1300.000000 1300.000000"
 preserveAspectRatio="xMidYMid meet">

<g transform="translate(0.000000,1300.000000) scale(0.100000,-0.100000)"
fill="#000000" stroke="none">
<path d="M6025 11831 c-40 -23 -128 -104 -210 -195 -6 -6 -59 -76 -118 -156
-59 -80 -147 -199 -196 -265 -83 -113 -202 -286 -227 -330 -60 -109 -77 -142
-107 -220 -62 -159 -93 -365 -84 -560 5 -119 33 -258 62 -316 14 -26 11 -35
-79 -216 -126 -252 -240 -402 -383 -506 -24 -17 -42 -31 -40 -31 1 -1 116 1
255 5 l252 6 65 32 c103 51 207 180 336 416 67 124 132 195 177 195 31 0 32
-2 32 -40 0 -48 -48 -200 -95 -302 -35 -77 -82 -140 -192 -263 -35 -38 -63
-76 -63 -85 1 -20 27 -48 133 -144 59 -53 101 -102 133 -155 43 -68 48 -83 52
-148 2 -41 8 -70 13 -67 11 7 2 -136 -13 -216 -6 -30 -11 -67 -11 -82 0 -15
-4 -25 -9 -21 -6 3 -5 -4 1 -15 13 -25 14 -35 2 -27 -17 10 -43 -27 -39 -55 3
-17 -1 -27 -9 -27 -6 0 -9 5 -6 11 3 6 1 6 -7 -1 -7 -6 -12 -24 -12 -38 0 -17
-3 -22 -8 -15 -9 15 -36 -27 -31 -49 1 -7 -2 -10 -8 -7 -5 4 -18 -2 -28 -12
-10 -10 -38 -35 -64 -55 l-45 -36 -260 262 c-143 144 -266 274 -272 290 -7 15
-19 27 -29 27 -24 0 -253 230 -253 253 0 48 -40 90 -110 117 -25 9 -369 346
-1166 1142 -954 953 -1135 1129 -1155 1126 -16 -2 -25 -11 -27 -27 -3 -20 167
-195 1088 -1116 l1093 -1093 -119 2 c-107 1 -124 -1 -164 -22 -87 -46 -131
-112 -146 -219 -16 -121 57 -194 227 -227 22 -5 28 -15 43 -67 20 -72 55 -146
102 -211 31 -44 32 -47 14 -53 -22 -7 -47 4 -74 34 -21 24 -46 27 -64 9 -17
-17 -15 -32 9 -59 49 -57 123 -76 178 -45 21 12 28 11 55 -5 17 -9 47 -21 68
-24 26 -5 38 -13 42 -28 3 -12 18 -38 34 -57 38 -45 75 -44 168 3 117 59 193
161 214 288 5 35 10 68 10 74 0 5 367 -357 815 -805 l815 -815 -62 -62 c-34
-34 -65 -60 -70 -57 -4 3 -8 25 -8 48 0 25 -6 48 -14 55 -12 10 -15 5 -21 -28
-4 -22 -5 -59 -4 -83 l4 -43 -1465 -1410 -1465 -1411 -3 124 -3 124 -25 -6
c-14 -4 -62 -11 -107 -17 -45 -5 -89 -12 -97 -15 -19 -7 -97 -22 -170 -34 -30
-5 -84 -14 -120 -20 -36 -5 -117 -20 -180 -31 -231 -42 -250 -45 -255 -41 -3
3 -5 541 -5 1196 l0 1191 -24 -25 -24 -25 -4 -1422 -3 -1423 145 -147 145
-148 -148 145 -148 145 2 -278 1 -277 -382 -367 c-326 -315 -381 -371 -378
-393 2 -18 10 -26 29 -28 25 -3 80 48 712 657 45 44 48 45 53 23 4 -12 9 -22
13 -22 3 0 77 71 163 157 153 153 157 158 141 178 -17 19 -17 20 2 2 19 -16
29 -7 342 305 178 178 323 330 323 339 0 10 664 657 1486 1448 1383 1331 1488
1430 1515 1426 31 -6 37 3 17 23 -10 10 5 30 67 92 l80 81 7 -51 c4 -27 16
-67 25 -87 15 -31 24 -39 52 -41 18 -2 38 1 44 7 8 8 8 11 -1 11 -12 0 -62 68
-62 85 0 5 659 -649 1465 -1455 l1465 -1465 0 -90 0 -90 279 -279 c153 -153
280 -274 282 -270 3 5 25 27 49 49 l45 40 -48 -50 -47 -50 202 -205 c112 -112
200 -202 196 -200 -4 3 -96 94 -205 202 l-199 198 -289 -290 c-263 -263 -287
-290 -260 -290 17 1 208 -2 425 -5 431 -7 509 -1 592 41 l51 26 -54 56 -54 57
55 -53 c31 -28 60 -52 66 -52 6 0 19 8 30 17 11 10 30 27 42 37 l23 20 233
-232 c241 -241 251 -248 277 -200 10 18 -16 47 -227 259 l-238 238 21 43 c12
24 26 63 32 88 6 29 12 716 16 1895 7 1817 7 1851 -12 1911 -40 124 -122 217
-244 273 -83 39 -147 51 -280 51 -60 0 -109 2 -109 4 0 2 15 36 34 77 72 158
80 192 80 339 1 146 -8 188 -65 300 -185 368 -769 429 -1084 114 -95 -96 -144
-203 -161 -351 l-6 -62 96 -98 96 -98 31 35 c17 19 44 58 61 86 l31 52 79 -68
79 -67 121 119 c66 65 129 118 139 118 34 0 49 -28 49 -94 0 -35 -5 -77 -11
-95 -10 -28 -9 -34 7 -46 33 -24 128 -45 207 -45 42 0 77 -2 77 -5 0 -19 -65
-128 -100 -167 -37 -43 -46 -48 -83 -48 l-40 0 23 -25 c22 -24 29 -25 141 -25
73 0 120 -4 124 -11 4 -6 13 -8 21 -5 7 3 30 -1 51 -8 37 -14 39 -13 78 23
l40 36 -33 -35 c-17 -20 -32 -39 -32 -42 0 -3 19 -18 43 -33 62 -41 124 -111
160 -179 30 -59 32 -66 35 -206 l4 -145 31 -35 32 -35 -31 28 c-27 24 -61 40
-38 18 5 -6 7 -183 4 -462 l-5 -453 -60 -12 c-33 -7 -103 -19 -155 -28 -167
-27 -384 -65 -425 -75 -22 -6 -89 -17 -150 -26 -60 -9 -118 -19 -127 -21 -17
-5 -18 -44 -18 -642 l0 -637 -1465 1465 c-806 806 -1465 1468 -1465 1471 0 10
748 729 759 729 14 0 32 -59 38 -131 8 -98 -18 -229 -68 -333 -20 -42 -20 -41
28 -104 18 -24 33 -47 33 -50 0 -4 -76 -5 -169 -4 l-168 4 -7 -38 c-12 -61
-47 -124 -94 -171 -25 -24 -50 -43 -56 -43 -6 0 -4 -5 4 -10 8 -5 34 -10 58
-10 34 0 48 5 67 28 13 15 25 35 25 45 0 9 7 17 15 17 14 0 16 8 20 65 1 11 7
30 14 43 l12 22 1372 -6 1372 -7 -24 27 -24 26 -402 0 -402 0 -89 93 c-117
121 -147 160 -225 292 -135 228 -310 538 -368 653 -17 34 -36 62 -43 62 -6 0
-9 3 -5 6 7 8 -76 166 -88 166 -5 0 -18 -17 -30 -39 -95 -175 -306 -372 -495
-463 -82 -39 -270 -113 -270 -105 0 2 880 850 1956 1886 1713 1649 1955 1885
1952 1908 -9 78 87 166 -2407 -2234 l-2354 -2267 -573 573 c-456 456 -570 575
-558 582 9 5 82 7 163 5 188 -6 241 -24 352 -120 82 -71 96 -77 239 -100 131
-20 496 -17 645 6 311 48 616 158 825 299 83 56 217 185 272 262 76 106 139
316 116 389 -5 17 -11 47 -13 66 -7 60 -65 229 -147 430 -44 107 -88 219 -99
249 l-19 55 29 30 c104 111 199 312 257 546 25 103 28 132 28 275 0 209 -32
381 -128 685 -14 41 -48 158 -76 260 -146 519 -278 693 -437 574 -93 -70 -193
-190 -318 -384 -38 -58 -81 -125 -97 -150 -49 -76 -183 -356 -253 -530 -36
-90 -68 -166 -70 -168 -2 -2 -38 3 -80 12 -43 9 -122 19 -176 23 l-99 6 0 131
c0 468 -115 1032 -238 1168 -29 32 -40 38 -76 38 -27 0 -58 -10 -91 -29z
m1455 -562 c0 -5 -5 -7 -11 -4 -5 4 -20 -1 -31 -12 -21 -18 -21 -18 -7 5 14
22 49 31 49 11z m-54 -81 l19 -23 -23 19 c-24 21 -42 15 -23 -8 7 -8 8 -17 3
-20 -11 -6 -24 33 -16 46 8 13 20 9 40 -14z m117 -35 c-3 -7 -9 -13 -15 -13
-5 0 -6 6 -1 13 4 6 7 21 5 32 l-2 20 9 -20 c4 -11 6 -26 4 -32z m31 -22 c-3
-41 -12 -55 -29 -41 -15 13 -41 -13 -29 -31 4 -7 3 -9 -2 -6 -6 3 -16 -8 -23
-23 -9 -21 -19 -29 -34 -27 -16 1 -21 -3 -19 -15 1 -9 -2 -19 -8 -23 -8 -5 -8
-11 0 -20 12 -15 -3 -30 -20 -20 -15 9 -12 27 3 19 6 -4 9 -4 5 1 -4 4 -3 14
3 21 7 8 6 14 -2 20 -7 4 -9 3 -6 -3 3 -5 -3 -17 -14 -26 -11 -10 -17 -21 -15
-26 3 -5 -2 -8 -12 -7 -13 1 -17 -7 -17 -39 l0 -40 -40 0 c-37 0 -40 -2 -37
-25 1 -17 -1 -21 -7 -11 -9 14 -18 5 -16 -19 0 -8 7 -14 14 -12 7 1 10 -2 6
-8 -5 -8 -11 -8 -19 -1 -7 6 -16 8 -20 4 -4 -4 -15 -8 -24 -8 -13 0 -17 -9
-16 -43 1 -26 -2 -38 -7 -31 -6 11 -9 10 -15 -4 -6 -16 -7 -16 -19 -1 -11 15
-13 15 -28 -6 -9 -13 -13 -28 -10 -33 3 -6 1 -7 -5 -3 -6 3 -13 2 -16 -3 -3
-5 1 -11 9 -15 17 -6 20 -26 4 -26 -5 0 -7 5 -4 10 7 11 -8 14 -19 3 -3 -4
-14 -8 -22 -9 -9 -1 -13 1 -9 4 4 4 11 8 16 8 22 3 23 5 9 14 -9 6 -20 5 -30
-3 -19 -15 61 79 121 143 26 27 50 46 55 42 4 -4 4 -1 0 6 -5 8 -12 10 -19 3
-8 -6 -16 -4 -24 4 -9 10 -10 16 -2 21 6 3 14 3 18 -2 21 -30 97 22 85 59 -5
16 -2 18 14 13 15 -5 24 -1 31 11 5 11 21 25 35 32 14 8 23 18 20 23 -3 4 -10
6 -15 3 -5 -4 -9 -1 -9 5 0 6 8 9 18 6 24 -8 74 46 66 69 -6 14 -3 16 15 10
15 -4 23 -2 27 10 4 8 16 21 27 27 16 8 23 7 33 -6 10 -14 12 -15 17 -1 4 8 3
14 -1 14 -21 -3 -23 3 -7 21 10 11 19 20 20 20 0 0 0 -13 -1 -29z m-2093 -18
c13 -16 12 -17 -3 -4 -17 13 -22 21 -14 21 2 0 10 -8 17 -17z m1873 2 c-6 -16
-24 -21 -24 -7 0 11 11 22 21 22 5 0 6 -7 3 -15z m-1794 -80 c13 -14 21 -25
18 -25 -2 0 -15 11 -28 25 -13 14 -21 25 -18 25 2 0 15 -11 28 -25z m2060 -30
c0 -5 -5 -3 -10 5 -5 8 -10 20 -10 25 0 6 5 3 10 -5 5 -8 10 -19 10 -25z
m-308 3 c-7 -7 -12 -8 -12 -2 0 14 12 26 19 19 2 -3 -1 -11 -7 -17z m-1676
-50 l29 -33 -32 29 c-18 17 -33 31 -33 33 0 8 8 1 36 -29z m1624 -46 c-10 -20
-19 -30 -20 -21 0 8 6 24 14 35 8 10 13 30 10 44 -4 25 -4 25 6 2 8 -18 5 -32
-10 -60z m-10 40 c0 -5 -7 -17 -15 -28 -14 -18 -14 -17 -4 9 12 27 19 34 19
19z m430 -75 c0 -4 -9 -3 -20 3 -11 6 -20 15 -20 20 0 6 9 5 20 -2 11 -7 20
-16 20 -21z m-1960 -2 c13 -14 21 -25 18 -25 -2 0 -15 11 -28 25 -13 14 -21
25 -18 25 2 0 15 -11 28 -25z m76 -77 l29 -33 -32 29 c-18 17 -33 31 -33 33 0
8 8 1 36 -29z m1911 -18 c-7 -17 -13 -26 -15 -21 -3 10 15 51 22 51 3 0 -1
-14 -7 -30z m21 -7 c-1 -5 2 -20 6 -35 5 -16 3 -34 -4 -45 -10 -15 -11 -15 -6
-1 3 9 1 30 -4 47 -4 16 -6 32 -2 35 8 8 12 7 10 -1z m-1852 -55 l29 -33 -32
29 c-18 17 -33 31 -33 33 0 8 8 1 36 -29z m80 -80 l29 -33 -32 29 c-18 17 -33
31 -33 33 0 8 8 1 36 -29z m1821 -50 c-3 -8 -6 -5 -6 6 -1 11 2 17 5 13 3 -3
4 -12 1 -19z m-767 -1 c0 -2 -10 -12 -22 -23 l-23 -19 19 23 c18 21 26 27 26
19z m-970 -32 c13 -14 21 -25 18 -25 -2 0 -15 11 -28 25 -13 14 -21 25 -18 25
2 0 15 -11 28 -25z m1000 -23 c0 -5 -7 -9 -15 -9 -8 0 -12 4 -9 9 3 4 9 8 15
8 5 0 9 -4 9 -8z m-920 -57 c19 -19 32 -35 29 -35 -3 0 -20 16 -39 35 -19 19
-32 35 -29 35 3 0 20 -16 39 -35z m810 32 c0 -2 -12 -14 -27 -28 l-28 -24 24
28 c23 25 31 32 31 24z m893 -96 c-6 -8 -11 5 -17 49 l-5 45 13 -45 c7 -25 11
-47 9 -49z m-831 57 c-7 -7 -12 -8 -12 -2 0 14 12 26 19 19 2 -3 -1 -11 -7
-17z m-22 -38 c-6 -11 -12 -20 -14 -20 -2 0 -2 9 1 20 3 11 9 20 15 20 5 0 4
-9 -2 -20z m-110 7 c0 -2 -15 -16 -32 -33 l-33 -29 29 33 c28 30 36 37 36 29z
m-620 -84 l75 -78 -77 75 c-43 41 -78 76 -78 77 0 8 11 -3 80 -74z m540 4 c0
-2 -15 -16 -32 -33 l-33 -29 29 33 c28 30 36 37 36 29z m134 -45 c-4 -18 -10
-32 -15 -32 -11 0 -11 1 2 39 14 40 21 35 13 -7z m940 -7 c5 -22 4 -26 -4 -15
-5 8 -10 24 -10 34 0 26 6 18 14 -19z m-1154 -28 c0 -2 -15 -16 -32 -33 l-33
-29 29 33 c28 30 36 37 36 29z m-177 -172 c16 14 16 14 2 -2 -14 -16 -10 -23
42 -78 l58 -60 -60 58 c-44 41 -64 54 -73 47 -9 -7 -9 -7 -2 2 8 9 -15 38 -82
108 l-93 95 95 -93 c88 -84 97 -91 113 -77z m477 125 c0 -5 -6 -10 -14 -10 -8
0 -18 5 -21 10 -3 6 3 10 14 10 12 0 21 -4 21 -10z m-380 -33 c0 -2 -15 -16
-32 -33 l-33 -29 29 33 c28 30 36 37 36 29z m415 -8 c11 -17 2 -18 -19 -3 -17
12 -17 14 -4 14 9 0 20 -5 23 -11z m61 -51 l19 -23 -25 20 c-14 11 -27 21 -29
22 -2 2 0 3 6 3 5 0 18 -10 29 -22z m-1452 -57 c3 -4 -6 -6 -19 -3 -14 2 -25
6 -25 8 0 8 39 4 44 -5z m-89 -31 c-3 -5 -12 -10 -18 -10 -7 0 -6 4 3 10 19
12 23 12 15 0z m112 4 c-3 -3 -12 -4 -19 -1 -8 3 -5 6 6 6 11 1 17 -2 13 -5z
m803 -7 c0 -2 -17 -19 -37 -38 l-38 -34 34 38 c33 34 41 42 41 34z m805 -47
c0 -19 -5 -34 -13 -36 -7 -1 -8 0 -2 3 14 7 12 25 -2 21 -7 -3 -18 1 -25 8
-15 14 -17 28 -4 20 5 -3 12 1 15 10 10 27 31 9 31 -26z m-1576 -45 c0 -16 -3
-36 -8 -44 -5 -8 -8 14 -8 55 1 67 14 57 16 -11z m391 15 c-20 -13 -33 -13
-25 0 3 6 14 10 23 10 15 0 15 -2 2 -10z m1777 -52 c-2 -13 -4 -5 -4 17 -1 22
1 32 4 23 2 -10 2 -28 0 -40z m-1733 27 c3 -8 1 -15 -4 -15 -6 0 -10 7 -10 15
0 8 2 15 4 15 2 0 6 -7 10 -15z m246 12 c0 -2 -15 -16 -32 -33 l-33 -29 29 33
c28 30 36 37 36 29z m380 -122 c63 -63 112 -115 110 -115 -3 0 -57 52 -120
115 -63 63 -112 115 -110 115 3 0 57 -52 120 -115z m-785 58 c-10 -14 -21 -38
-24 -52 -4 -14 -10 -21 -13 -16 -3 6 6 35 20 65 14 30 27 49 29 42 3 -7 -3
-24 -12 -39z m-498 -5 c-3 -7 -5 -2 -5 12 0 14 2 19 5 13 2 -7 2 -19 0 -25z
m2373 -38 l-8 -35 -1 45 c-1 27 3 40 8 35 6 -6 6 -25 1 -45z m-2220 25 c0 -8
-4 -15 -10 -15 -5 0 -10 7 -10 15 0 8 5 15 10 15 6 0 10 -7 10 -15z m45 -12
c-3 -14 -13 -36 -21 -47 -14 -20 -15 -20 -8 9 4 17 11 32 16 33 4 2 8 10 8 18
0 8 3 14 6 14 3 0 3 -12 -1 -27z m625 14 c0 -2 -15 -16 -32 -33 l-33 -29 29
33 c28 30 36 37 36 29z m-670 -89 c0 -6 -7 -7 -16 -4 -9 3 -18 6 -20 6 -3 0
-3 4 1 10 7 11 35 2 35 -12z m590 9 c0 -2 -12 -14 -27 -28 l-28 -24 24 28 c23
25 31 32 31 24z m-614 -36 c-7 -11 -66 -20 -66 -10 0 4 15 10 33 12 17 2 33 5
35 5 2 1 1 -2 -2 -7z m347 -21 c6 -24 -8 -36 -17 -14 -8 22 -7 34 3 34 5 0 11
-9 14 -20z m197 -7 c0 -12 -59 -75 -110 -119 -25 -21 -35 -27 -22 -13 12 14
19 29 15 34 -5 4 -2 5 5 1 7 -4 12 -1 12 8 0 9 14 23 30 31 17 9 36 27 42 40
10 23 28 34 28 18z m1366 -70 c-6 -6 -46 56 -46 72 0 5 12 -8 26 -28 14 -21
23 -41 20 -44z m284 50 c0 -5 -9 -21 -20 -38 -22 -33 -27 -21 -8 20 10 23 28
34 28 18z m-880 -38 c19 -19 32 -35 29 -35 -3 0 -20 16 -39 35 -19 19 -32 35
-29 35 3 0 20 -16 39 -35z m-935 -14 l30 -35 -32 25 c-18 13 -32 30 -32 38 -1
8 0 12 2 10 1 -2 16 -20 32 -38z m1015 -66 c19 -19 32 -35 29 -35 -3 0 -20 16
-39 35 -19 19 -32 35 -29 35 3 0 20 -16 39 -35z m574 -20 l17 -30 -20 24 c-12
13 -21 28 -21 34 0 12 0 11 24 -28z m144 5 c-7 -11 -16 -20 -20 -20 -11 0 -10
9 5 25 18 21 29 18 15 -5z m-1738 -23 c0 -2 -15 -16 -32 -33 l-33 -29 29 33
c28 30 36 37 36 29z m1100 -42 c19 -19 32 -35 29 -35 -3 0 -20 16 -39 35 -19
19 -32 35 -29 35 3 0 20 -16 39 -35z m548 -19 c-7 -8 -15 -12 -17 -11 -5 6 10
25 20 25 5 0 4 -6 -3 -14z m-1728 -19 c0 -2 -15 -16 -32 -33 l-33 -29 29 33
c28 30 36 37 36 29z m1300 -84 l75 -78 -77 75 c-72 69 -83 80 -75 80 1 0 36
-35 77 -77z m-1380 4 c0 -2 -15 -16 -32 -33 l-33 -29 29 33 c28 30 36 37 36
29z m-90 -90 c0 -2 -12 -14 -27 -28 l-28 -24 24 28 c23 25 31 32 31 24z m1630
-74 l75 -78 -77 75 c-43 41 -78 76 -78 77 0 8 11 -3 80 -74z m-1710 -6 c0 -1
-48 -50 -107 -107 l-108 -105 105 108 c97 99 110 112 110 104z m1968 -368 c-6
-16 -12 -28 -14 -26 -8 7 8 67 17 62 4 -3 3 -19 -3 -36z m-179 7 c-8 -8 -25
-17 -39 -21 -21 -6 -19 -3 10 18 36 26 55 27 29 3z m-89 -56 c-11 -7 -12 -10
-2 -10 11 0 11 -2 0 -12 -7 -7 -30 -13 -50 -14 l-38 0 33 18 c17 10 39 22 47
27 20 11 29 3 10 -9z m221 -77 c-12 -20 -14 -14 -5 12 4 9 9 14 11 11 3 -2 0
-13 -6 -23z m-508 -50 c-7 -2 -19 -2 -25 0 -7 3 -2 5 12 5 14 0 19 -2 13 -5z
m-1310 -50 c-5 -12 0 -14 28 -9 25 4 29 4 14 -3 -19 -9 -19 -10 -1 -10 11 -1
17 -3 14 -6 -11 -11 -64 8 -80 29 -16 22 -16 23 7 18 16 -3 22 -9 18 -19z
m1227 17 c-8 -5 -35 -9 -60 -9 -41 1 -42 2 -15 9 17 4 44 8 60 9 23 0 26 -2
15 -9z m-1120 -46 c0 -2 -9 -4 -20 -4 -11 0 -20 4 -20 9 0 5 9 7 20 4 11 -3
20 -7 20 -9z m950 6 c8 -5 11 -10 5 -10 -5 0 -17 5 -25 10 -8 5 -10 10 -5 10
6 0 17 -5 25 -10z m-97 -7 c-7 -2 -19 -2 -25 0 -7 3 -2 5 12 5 14 0 19 -2 13
-5z m-83 -28 c-7 -9 -15 -13 -17 -11 -7 7 7 26 19 26 6 0 6 -6 -2 -15z m-513
-1 c-3 -3 -12 -4 -19 -1 -8 3 -5 6 6 6 11 1 17 -2 13 -5z m122 2 c-2 -2 -29
-6 -59 -9 -34 -3 -47 -2 -35 3 19 8 103 14 94 6z m181 -6 c20 -6 21 -8 5 -8
-11 0 -31 4 -45 8 -20 6 -21 8 -5 8 11 0 31 -4 45 -8z m147 4 c-3 -3 -12 -4
-19 -1 -8 3 -5 6 6 6 11 1 17 -2 13 -5z m911 -29 c-6 -14 -15 -25 -19 -25 -4
0 -2 11 4 25 7 14 15 25 19 25 4 0 2 -11 -4 -25z m-2678 -256 c-78 -154 -160
-247 -241 -274 -44 -15 -51 -15 -82 0 -66 31 -161 166 -197 278 -15 47 -8 67
24 67 41 0 144 36 195 70 28 17 67 54 88 81 l37 49 104 -103 104 -104 -32 -64z
m1673 254 c-7 -2 -19 -2 -25 0 -7 3 -2 5 12 5 14 0 19 -2 13 -5z m924 -126
c-6 -11 -18 -28 -26 -36 -12 -13 -13 -12 -6 9 4 14 12 27 16 28 5 2 9 10 9 18
0 9 4 12 10 9 6 -4 5 -14 -3 -28z m-97 -119 c0 -7 -14 -28 -30 -47 -17 -18
-30 -29 -30 -23 0 6 11 22 25 36 14 14 25 30 25 36 0 5 2 10 5 10 3 0 5 -6 5
-12z m-1540 -40 c0 -38 -5 -34 -13 10 -4 21 -3 31 3 27 6 -3 10 -20 10 -37z
m1454 -73 c-4 -8 -8 -15 -10 -15 -2 0 -4 7 -4 15 0 8 4 15 10 15 5 0 7 -7 4
-15z m-34 -29 c0 -3 -4 -8 -10 -11 -5 -3 -10 -1 -10 4 0 6 5 11 10 11 6 0 10
-2 10 -4z m-70 -80 c0 -2 -7 -6 -15 -10 -8 -3 -15 -1 -15 4 0 6 7 10 15 10 8
0 15 -2 15 -4z m-50 -51 c-7 -9 -15 -13 -17 -11 -7 7 7 26 19 26 6 0 6 -6 -2
-15z m-1435 -55 c3 -5 1 -10 -4 -10 -6 0 -11 5 -11 10 0 6 2 10 4 10 3 0 8 -4
11 -10z m47 -101 c-13 -5 -30 -5 -39 -1 -10 6 -2 9 24 10 33 0 35 -1 15 -9z
m1175 5 c-3 -3 -12 -4 -19 -1 -8 3 -5 6 6 6 11 1 17 -2 13 -5z m-1054 -21 c-7
-2 -19 -2 -25 0 -7 3 -2 5 12 5 14 0 19 -2 13 -5z m36 -29 c10 -9 -45 -3 -59
6 -11 7 -5 8 20 4 19 -4 37 -8 39 -10z m894 -1 c-7 -2 -21 -2 -30 0 -10 3 -4
5 12 5 17 0 24 -2 18 -5z m-193 -33 c0 -5 -18 -10 -40 -10 -22 0 -40 5 -40 10
0 6 18 10 40 10 22 0 40 -4 40 -10z m-367 -7 c-7 -2 -19 -2 -25 0 -7 3 -2 5
12 5 14 0 19 -2 13 -5z m270 -10 c-7 -2 -19 -2 -25 0 -7 3 -2 5 12 5 14 0 19
-2 13 -5z m2802 -393 c27 -27 47 -50 44 -50 -3 0 -27 23 -54 50 -27 28 -47 50
-44 50 3 0 27 -22 54 -50z m95 -95 c19 -19 32 -35 29 -35 -3 0 -20 16 -39 35
-19 19 -32 35 -29 35 3 0 20 -16 39 -35z m120 -122 l75 -78 -77 75 c-72 69
-83 80 -75 80 1 0 36 -35 77 -77z m120 -118 c19 -19 32 -35 29 -35 -3 0 -20
16 -39 35 -19 19 -32 35 -29 35 3 0 20 -16 39 -35z m-2418 -477 c-8 -8 -9 -4
-5 13 4 13 8 18 11 10 2 -7 -1 -18 -6 -23z m38 18 c0 -8 -4 -18 -10 -21 -5 -3
-10 3 -10 14 0 12 5 21 10 21 6 0 10 -6 10 -14z m3500 -661 c19 -19 32 -35 29
-35 -3 0 -20 16 -39 35 -19 19 -32 35 -29 35 3 0 20 -16 39 -35z m80 -80 c13
-14 21 -25 18 -25 -2 0 -15 11 -28 25 -13 14 -21 25 -18 25 2 0 15 -11 28 -25z
m80 -80 c13 -14 21 -25 18 -25 -2 0 -15 11 -28 25 -13 14 -21 25 -18 25 2 0
15 -11 28 -25z m10 -2298 c0 -2 -12 -14 -27 -28 l-28 -24 24 28 c23 25 31 32
31 24z m-80 -80 c0 -2 -10 -12 -22 -23 l-23 -19 19 23 c18 21 26 27 26 19z
m-80 -80 c0 -1 -82 -83 -182 -182 l-183 -180 180 183 c167 169 185 187 185
179z"/>
<path d="M7466 11024 c-5 -14 -4 -15 9 -4 17 14 19 20 6 20 -5 0 -12 -7 -15
-16z"/>
<path d="M7319 10873 c-13 -16 -17 -22 -10 -16 12 10 18 10 30 0 14 -10 14
-10 4 4 -10 12 -10 18 -1 27 7 7 10 12 7 12 -3 0 -16 -12 -30 -27z"/>
<path d="M7230 10789 c0 -5 -5 -7 -12 -3 -7 4 -8 3 -4 -5 6 -9 11 -9 22 0 17
14 18 19 4 19 -5 0 -10 -5 -10 -11z"/>
<path d="M7170 10736 c0 -9 5 -16 10 -16 6 0 10 4 10 9 0 6 -4 13 -10 16 -5 3
-10 -1 -10 -9z"/>
<path d="M7147 10721 c6 -25 19 -35 27 -22 3 4 -3 16 -14 26 -18 16 -18 16
-13 -4z"/>
<path d="M7080 10655 c-7 -8 -8 -15 -2 -15 5 0 15 7 22 15 7 8 8 15 2 15 -5 0
-15 -7 -22 -15z"/>
<path d="M7247 10016 c-4 -10 -1 -13 9 -9 15 6 19 23 5 23 -5 0 -11 -7 -14
-14z"/>
<path d="M2828 6694 c-58 -14 -158 -59 -158 -71 0 -4 10 -18 22 -32 21 -24 21
-24 -8 2 l-30 27 -53 -52 c-34 -34 -66 -80 -89 -128 l-36 -75 -4 -165 -4 -165
26 24 c24 23 26 30 26 114 0 143 33 240 112 329 35 39 132 108 152 108 7 0 16
4 22 8 21 19 97 32 186 32 92 0 95 1 123 30 l29 30 -130 -1 c-73 0 -154 -7
-186 -15z"/>
<path d="M3126 6681 l-30 -31 652 0 c359 0 655 0 660 0 4 0 7 11 7 24 l0 25
-630 6 -630 7 -29 -31z"/>
<path d="M5486 6675 c-4 -14 -4 -30 -1 -34 2 -5 7 -26 10 -47 3 -30 2 -35 -6
-21 -6 9 -8 21 -4 26 3 5 1 12 -5 16 -5 3 -10 0 -10 -7 0 -25 -71 -118 -112
-148 l-41 -30 79 0 c43 0 84 4 90 8 6 4 19 22 28 40 9 18 23 35 30 38 9 3 17
31 21 70 l7 65 259 -3 259 -3 0 28 0 27 -299 0 -299 0 -6 -25z m-34 -150 c-9
-19 -21 -35 -26 -35 -4 0 -2 10 6 23 8 12 18 28 22 35 16 27 15 10 -2 -23z
m-58 -69 c-3 -9 -16 -16 -28 -15 -21 0 -21 0 2 9 12 5 22 15 22 21 0 7 2 10 5
7 3 -3 3 -13 -1 -22z"/>
<path d="M4543 6654 c-11 -24 -19 -73 -21 -129 l-4 -90 32 -12 c28 -11 31 -10
25 5 -19 44 -24 111 -16 181 5 42 8 78 5 80 -2 2 -11 -13 -21 -35z"/>
<path d="M6217 6643 c-38 -119 -32 -200 16 -228 30 -18 30 -18 23 1 -21 50
-27 106 -21 187 4 48 4 87 2 87 -3 0 -12 -21 -20 -47z"/>
<path d="M4758 6633 c-17 -38 -21 -68 -21 -138 0 -116 11 -145 56 -145 l34 0
-24 51 c-26 54 -32 128 -18 228 4 28 4 51 0 51 -3 0 -16 -21 -27 -47z"/>
<path d="M6437 6643 c-11 -27 -12 -42 -5 -51 15 -17 20 -9 28 43 8 55 -3 58
-23 8z"/>
<path d="M4992 6633 c-24 -56 -23 -177 3 -228 17 -35 25 -40 58 -43 20 -2 37
0 37 3 0 4 -12 22 -26 40 -39 52 -55 116 -48 196 4 38 4 69 0 69 -4 0 -14 -17
-24 -37z"/>
<path d="M2963 4940 c-51 -21 -53 -38 -53 -468 l0 -399 25 -27 c17 -18 34 -26
59 -26 94 0 93 -6 97 465 4 439 5 434 -55 455 -34 12 -43 12 -73 0z"/>
<path d="M3447 3412 c-15 -15 -25 -31 -22 -35 3 -4 2 -5 -2 -2 -10 8 -723
-707 -716 -718 3 -6 2 -7 -4 -4 -5 3 -51 -35 -101 -86 l-91 -92 47 -61 c26
-34 63 -73 82 -85 19 -13 37 -27 40 -31 3 -3 41 -19 85 -34 79 -27 85 -28 360
-32 l280 -3 -277 278 c-153 153 -281 283 -285 288 -4 6 123 -119 282 -277
l290 -288 1261 0 c693 0 1264 -3 1268 -7 9 -10 37 -13 31 -3 -2 4 5 16 18 26
18 16 19 16 8 2 -7 -10 -12 -18 -10 -19 2 0 247 -3 544 -6 l540 -5 -20 23 -20
24 26 -22 25 -23 1260 0 1259 0 293 293 292 292 -275 275 -275 275 0 -433 0
-432 -1412 0 -1412 0 64 -67 65 -68 -70 68 -71 67 -279 0 -280 0 -74 -73 c-41
-39 -69 -65 -63 -56 7 9 8 20 4 24 -4 5 -2 6 3 2 6 -3 35 19 65 49 l54 54
-774 0 c-426 0 -1040 3 -1365 6 -324 3 -596 5 -602 5 -10 -1 -13 103 -15 470
l-3 470 -28 -29z m2643 -1075 c0 -2 -17 -19 -37 -38 l-38 -34 34 38 c33 34 41
42 41 34z m906 -29 l29 -33 -32 29 c-18 17 -33 31 -33 33 0 8 8 1 36 -29z"/>
</g>
</svg>
